<svg xmlns="http://www.w3.org/2000/svg" xmlns:xlink="http://www.w3.org/1999/xlink" viewBox="0 0 1200 750" width="1200" height="750" role="img" aria-label="Linux neon penguin">
  <defs>
    
    <filter id="bloom" x="-30%" y="-30%" width="160%" height="160%" color-interpolation-filters="sRGB">
      <feGaussianBlur stdDeviation="7" result="b"/>
      <feComponentTransfer in="b" result="bb">
        <feFuncR type="linear" slope="1.5"/>
        <feFuncG type="linear" slope="1.5"/>
        <feFuncB type="linear" slope="1.5"/>
      </feComponentTransfer>
      <feMerge>
        <feMergeNode in="bb"/>
        <feMergeNode in="bb"/>
      </feMerge>
    </filter>
    <g id="art"><path fill="#6b454e" d="M639 228c3.027.905 5.575 1.948 8 4 .938 3.688.938 3.688 1 7l1 1c.126 2.31.176 4.624.188 6.938l.042 3.84C649 254 649 254 647 256q-1.01 2.495-2 5c-1.5 2.813-1.5 2.813-3 5h-2c1.074 2.915 1.778 4.778 4 7 .664 5.06.664 5.06 0 8-1.803 2.318-3.467 3.38-6 5h-2v2c-2.117 1.945-2.117 1.945-4.875 4.125l-2.742 2.195C626 296 626 296 624 296v2c-5.412 4-5.412 4-8 4v3c-5.418 5.07-10.773 7.47-18.187 7.438-1.94-.111-3.88-.244-5.813-.438v-2l-1.75-.312c-2.607-.797-4.224-1.879-6.25-3.688v-2l-1.656-.75c-3.846-2.05-7.203-4.771-10.688-7.375-2.183-1.541-4.23-2.777-6.656-3.875v-2l-5-2v-2h-2a337 337 0 0 1-.125-4.75l-.07-2.672c.209-2.758.684-4.277 2.195-6.578l3-2 1-3h-2l-.75-1.875C560 263 560 263 558 262.156c-2-1.156-2-1.156-2.828-3.32l-.422-2.461-.453-2.477c-.05-.313-.05-.313-.297-1.898h-1c-.082-2.062-.14-4.125-.187-6.187l-.106-3.481c.32-3.63 1.125-5.442 3.293-8.332 3.564-1.716 8.145-1.184 12-1l3 2 2.5.313c2.5.687 2.5.687 4.188 2.937C579 241 579 241 579.875 243.75L581 246c2.625.813 2.625.813 5 1l2 8h5v-3l2.922-.043 3.828-.144 3.797-.106C607 251 607 251 609.262 248.766L611 246l1.598-2.535 1.465-2.528c3.855-6.636 3.855-6.636 5.937-8.937 2.022-.289 4.049-.57 6.086-.719C628 231 628 231 630.062 229.437c3.044-2.258 5.237-1.869 8.938-1.437"/><path fill="#bb7784" d="M594 152c4.229-.116 8.457-.187 12.688-.25l3.63-.102 3.506-.039 3.222-.063c3.658.562 5.201 2.056 7.954 4.454 3.313.75 3.313.75 6 1v4l8 2v2l5 2v2h2v2l1.742.219c3.072 1.063 4.317 2.8 6.383 5.281 3.7 4.413 3.7 4.413 5.875 5.5v4h3l3 6h2l1 9h2l.148 1.793.227 2.394.21 2.356c.415 2.457.415 2.457 1.42 4.668 1.442 4.039 1.426 7.966 1.558 12.226q.093 2.498.192 4.997l.101 2.683c.16 3.165.422 6.315.684 9.473.393 5.286.503 10.498.418 15.793l-.03 2.166a780 780 0 0 1-.174 8.788c-.244 9.641.63 17.595 4.247 26.663a91 91 0 0 1 1 4h2c1.72 2.594 3.27 5.24 4.814 7.94 2.873 4.879 6.364 8.386 10.499 12.185C700 321 700 321 700 324l5-2 .227 2.012c1.102 7.405 1.102 7.405 4.648 10.488l1.605 1.086c2.64 2.455 3.446 5.755 4.563 9.11C717 347 717 347 718.57 348.542c2.562 2.611 2.141 5.933 2.43 9.457h1l1-4 1.125 2.313c2.075 4.179 4.384 8.229 6.668 12.296C732 371 732 371 732 373h2a618 618 0 0 1 2.5 5.25l1.406 2.953C739 384 739 384 739 388h2l3 10-3 1-1-4h-2l-.312-2.312c-.764-2.987-1.485-3.655-3.688-5.688-2.161-3.026-3.223-5.66-4-9.25l-1-3.75-3-1c-4.043-5.121-6.375-11.068-9-17-1.414-2.992-2.707-5.609-4.687-8.25C711 346 711 346 711 344l-3-1c-1.902-2.363-1.902-2.363-3.937-5.312-1.927-2.78-3.723-5.352-6.13-7.731-2.125-2.151-3.4-4.357-4.933-6.957a223 223 0 0 0-4.312-5.25C676 302.438 676 302.438 676 296h-2c-3.945-10.956-4.47-20.492-4-32h-2l-.028-3.77c-.04-4.698-.107-9.396-.18-14.095a893 893 0 0 1-.063-6.054c-.115-15.467-.544-31.44-8.729-45.081l-1.012-2.082C652.857 182.638 644.837 174.773 635 169l-3-2a162 162 0 0 0-8.187-1.625l-2.272-.406c-1.846-.33-3.693-.65-5.541-.969v-2q-4.938.21-9.875.438l-2.84.119-2.715.127-2.507.11C596 163 596 163 594 164c-1.346.146-2.696.26-4.047.355-5.102.526-9.47 2.044-14.203 3.958l-2.352.896c-4.422 1.747-7.744 3.68-11.398 6.791h-2v2h-2v2h-2l-.25 1.75c-.96 2.881-2.612 4.112-4.75 6.25-2.593 4.322-3.415 8.025-4 13l-1 1c-.537 2.475-.964 4.963-1.402 7.457C544 212 544 212 542.973 213.814c-1.215 2.73-1.185 4.72-1.133 7.706l.036 3.47.062 3.822c.02 2.78.03 5.56.039 8.34l.008 2.29c.032 9.76-.006 19.517-.137 29.276a721 721 0 0 0-.044 6.282 697 697 0 0 1-.097 8.93l.012 2.676c-.154 6.592-2.166 10.909-5.719 16.394l-1.625 2.875c-1.306 2.018-2.685 3.435-4.375 5.125l-1.375 2.375c-1.868 3.017-4.116 5.116-6.625 7.625a199 199 0 0 0-4.57 6.133C516 329 516 329 514.379 330.609 513 332 513 332 512.062 334.125c-.35.619-.7 1.238-1.062 1.875l-2 .438-2 .562-.875 2.207c-1.281 3.18-2.994 5.364-5.125 8.043-3.255 4.336-4.72 7.514-5.516 12.813-.946 3.785-4.04 5.742-6.914 8.12-2.327 2.692-3.728 5.821-5.257 9.005l-.971 1.982A964 964 0 0 0 480 384h-2c.52-4.476 1.65-7.205 4-11a133 133 0 0 0 2.156-6.133C485 365 485 365 486.47 363.562c1.936-1.976 2.586-3.846 3.531-6.437 1.381-3.607 2.698-6.986 5-10.125h2l.313-2.312c.769-3.007 1.516-3.6 3.687-5.688l1.375-2.812c1.859-3.647 3.844-6.194 6.625-9.188h2l.188-2.687c1.012-4.13 2.732-5.448 5.812-8.313l2.188-3.312L521 310h2l1-6 3-1-.062-2.375C527 298 527 298 528 296l-.5-2.437C527 291 527 291 528 288l3-1c2.646-4.23 3.373-7.471 3.356-12.417l.01-3.791-.038-4.054q-.005-2.094-.006-4.19a1447 1447 0 0 0-.04-8.752c-.03-3.74-.04-7.479-.044-11.218q-.008-4.32-.026-8.64l-.015-4.137c-.006-1.924-.021-3.848-.036-5.772l-.02-3.317C534 218 534 218 533 215c-1.832-7.48.277-14.395 4-21 3.429-3 3.429-3 6-3l-.035-2.047-.028-2.703-.035-2.672c.17-4.464.17-4.464 1.098-6.578 2.215-1.379 2.215-1.379 4.938-2.562 4.859-2.133 4.859-2.133 7.062-5.438h2v-2h2l.75-1.812c1.473-2.579 2.723-3.64 5.25-5.188 2.473-.258 2.473-.258 5.063-.125 3.138.142 4.91.134 7.937-.875 2.059-.223 4.122-.407 6.188-.562l3.292-.254L591 158l1-3h5v-2z"/><path fill="#d29198" d="M639 233c1.813 1.375 1.813 1.375 3 3v2l3 1c.643 15.847.643 15.847-4.535 21.75-1.438 1.468-2.946 2.866-4.465 4.25l2 5c-7.418.094-14.662.174-22-1v-2l-5-1-1-3h-7v-3l-10-1v2l-1.61.77c-3.083 1.502-5.96 2.904-8.702 4.98C581 268 581 268 578 268v2h-6v2h-7v-2c2.918-1.945 4.625-2.453 8-3l-3.062-.125c-4.834-.706-7.773-3.285-10.938-6.875-3.785-5.982-4.15-13.07-3-20 1.923-2.638 3.04-3.808 6.262-4.453 7.634.64 11.68 3.86 16.738 9.453 3.49 4.274 4.694 7.484 5 13-.437 2.438-.437 2.438-1 4h3v-2c4.013-3.061 8.215-5.65 13.188-6.625 3.828.85 6.46 2.576 9.812 4.625 1.322.376 2.654.72 4 1l.043-2.047c.396-7.408.396-7.408 3.144-10.078L619 245a95 95 0 0 0 3-4.062c2.822-3.894 5.406-6.046 10-7.625 2.437-.381 4.538-.566 7-.313"/><path fill="#3a181d" d="M594 260h8v8h2v-4h2l1 3 1-4h2l2 3 3 1v3l2.563.148c15.919 1.05 15.919 1.05 22.437 4.852v5h-2v-3h-2l-1 3c-6.96 5.433-15.198 9.328-23.008 13.398C609 295 609 295 608 296c-1.666.04-3.334.043-5 0v2c-6.701.487-11.066-.923-17-4v-2l-2.617-.785c-3.456-1.241-6.355-2.778-9.508-4.652l-3.07-1.81c-4.97-3.107-4.97-3.107-6.805-4.753v-3c2.063-1.5 2.063-1.5 5-3l1.785-.926c1.84-.887 1.84-.887 5.215-2.074l3 2 .75-1.828c1.456-2.53 2.761-3.44 5.25-4.922l2.125-1.297C589 264 589 264 591 264l1-2h2z"/><path fill="#a45c69" d="M594 152c4.229-.116 8.457-.187 12.688-.25l3.63-.102 3.506-.039 3.222-.063c3.658.562 5.201 2.056 7.954 4.454 3.313.75 3.313.75 6 1v4l-2.473-.437c-8.333-1.306-16.464-1.756-24.902-1.75l-3.117-.002c-7.373.054-7.373.054-8.508 1.189-3.324.538-6.657.966-9.996 1.402C579 162 579 162 577 164c-2.164.633-2.164.633-4.625 1.125l-2.477.508L568 166v2c-1.68 1.508-1.68 1.508-3.875 3.125l-2.18 1.633C560 174 560 174 558 174l-.687 1.875C556 178 556 178 553.625 178.75c-3.556 1.693-4.211 3.859-5.73 7.375C547 188 547 188 545 190l-.5 2.063L544 194l-2 1c-7.46 15.185-5.685 33.343-5.632 49.8q.026 9.44-.026 18.88c-.006 2.167.007 4.332.022 6.497.006 9.012-1.112 17.099-3.364 25.823h3l.438-3.5c.328-2.628.673-5.246 1.064-7.866.716-5.755.711-11.521.78-17.314l.055-3.66q.087-5.767.163-11.535.103-7.59.219-15.18l.04-3.48c.204-13.28 1.57-25.311 7.241-37.465h1c.043 1.666.04 3.334 0 5l-1 1c-.537 2.475-.964 4.963-1.402 7.457C544 212 544 212 542.973 213.814c-1.215 2.73-1.185 4.72-1.133 7.706l.036 3.47.062 3.822c.02 2.78.03 5.56.039 8.34l.008 2.29c.032 9.76-.006 19.517-.137 29.276a721 721 0 0 0-.044 6.282 697 697 0 0 1-.097 8.93l.012 2.676c-.154 6.592-2.166 10.909-5.719 16.394l-1.625 2.875c-1.306 2.018-2.685 3.435-4.375 5.125l-1.375 2.375c-1.868 3.017-4.116 5.116-6.625 7.625a199 199 0 0 0-4.57 6.133C516 329 516 329 514.379 330.609 513 332 513 332 512.062 334.125c-.35.619-.7 1.238-1.062 1.875l-2 .438-2 .562-.875 2.207c-1.281 3.18-2.994 5.364-5.125 8.043-3.255 4.336-4.72 7.514-5.516 12.813-.946 3.785-4.04 5.742-6.914 8.12-2.327 2.692-3.728 5.821-5.257 9.005l-.971 1.982A964 964 0 0 0 480 384h-2c.52-4.476 1.65-7.205 4-11a133 133 0 0 0 2.156-6.133C485 365 485 365 486.47 363.562c1.936-1.976 2.586-3.846 3.531-6.437 1.381-3.607 2.698-6.986 5-10.125h2l.313-2.312c.769-3.007 1.516-3.6 3.687-5.688l1.375-2.812c1.859-3.647 3.844-6.194 6.625-9.188h2l.188-2.687c1.012-4.13 2.732-5.448 5.812-8.313l2.188-3.312L521 310h2l1-6 3-1-.062-2.375C527 298 527 298 528 296l-.5-2.437C527 291 527 291 528 288l3-1c2.646-4.23 3.373-7.471 3.356-12.417l.01-3.791-.038-4.054q-.005-2.094-.006-4.19a1447 1447 0 0 0-.04-8.752c-.03-3.74-.04-7.479-.044-11.218q-.008-4.32-.026-8.64l-.015-4.137c-.006-1.924-.021-3.848-.036-5.772l-.02-3.317C534 218 534 218 533 215c-1.832-7.48.277-14.395 4-21 3.429-3 3.429-3 6-3l-.035-2.047-.028-2.703-.035-2.672c.17-4.464.17-4.464 1.098-6.578 2.215-1.379 2.215-1.379 4.938-2.562 4.859-2.133 4.859-2.133 7.062-5.438h2v-2h2l.75-1.812c1.473-2.579 2.723-3.64 5.25-5.188 2.473-.258 2.473-.258 5.063-.125 3.138.142 4.91.134 7.937-.875 2.059-.223 4.122-.407 6.188-.562l3.292-.254L591 158l1-3h5v-2z"/><path fill="#323032" d="M690 364h2c2.758 2.844 3.954 4.831 5 8.688l1 3.312 1.852.926c6.586 3.293 9.459 12.456 11.729 19.037 2.935 8.912 4.585 16.558 4.544 25.974l.012 2.67c-.007 4.578-.202 8.89-1.137 13.393l2.563.313c3.851.77 6.878 2.05 10.437 3.687l-1 2h-19v2h-4v2l-2.437 1.438C699 451 699 451 698 454l-3 2c-.687 2.625-.687 2.625-1 5a101 101 0 0 0 6-2l1-2c10.073-3.358 25.275-1.759 35 2 2.93 2.285 4.53 4.355 6.688 7.313L744 468h2c4.33-6.928 3.287-17.127 3.563-25l.13-3.504q.159-4.248.307-8.496c2.036 3.377 2.257 5.99 2.266 9.902 0 .57 0 .57.007 3.448l-.023 3.587.023 3.577-.014 6.595c-.27 3.014-1.004 5.154-2.259 7.891l-1.125 2.813L748 471l2.688-.312C754 471 754 471 756.75 472.875c5.26 7.306 4.518 16.464 4.25 25.125h2l.188 2.375L764 503c2.563 1.313 2.563 1.313 5 2v2l2.375.188c4.978 1.115 9.15 3.415 13.625 5.812v2l1.875.25c2.125.75 2.125.75 3.25 2.469 1.023 2.667 1.075 4.684 1 7.531l-.055 2.703L791 530l-3-1v-6l-3-1v-2l-2.937-.812L779 518l-1-3-3.687-.312c-3.772-.465-6.14-1.544-9.313-3.688l-2.687-1C760 509 760 509 758 506c-.125-3.187-.125-3.187 0-6l-3-1-.332-3.832-.48-4.98-.213-2.526-.245-2.432-.206-2.237c-.655-2.49-1.468-3.461-3.524-4.993-5.714-.484-10.562.187-16 2l-1 3c-1.855 1.281-1.855 1.281-4.187 2.5l-2.481 1.297L724 488l-3 1.75c-6.283 2.618-12.408 2.512-19 1.25 1.786-2.26 2.663-2.947 5.559-3.406l2.879-.094c4.276-.14 6.314-.697 9.562-3.5l2.313-1.312c2.323-1.46 4.153-2.933 6.187-4.75 2.717-2.398 5.073-3.7 8.5-4.938 1.813-1.625 1.813-1.625 3-3-.687-1.875-.687-1.875-2-4-2.312-1.062-2.312-1.062-5-2l-2.295-1.531c-4.871-2.645-10.215-1.94-15.643-1.906l-3.537-.061c-6.562.004-10.473.232-15.525 4.498-2.812.313-2.812.313-5 0l-1-1c.09-1.691.246-3.38.438-5.062l.308-2.786L691 454h2l.688-1.687c2.074-3.656 4.59-6.708 8.625-8.125L704 444v-2c5.75-3 5.75-3 8-3-.053-4.084-.148-8.167-.25-12.25l-.043-3.453c-.202-7.126-1.257-13.017-3.858-19.667-.873-2.706-1.009-4.808-.849-7.63h-2c-.315-.797-.63-1.593-.953-2.414C701.774 387.96 699.51 382.94 696 378v-2h-3l-1-6h-2z"/><path fill="#7e5962" d="M483 454c1.439.087 2.876.196 4.313.313l2.425.175c2.677.606 3.565 1.396 5.262 3.512l1.438 2.563c1.663 2.595 2.73 3.363 5.562 4.437v9l-1.066-1.46c-3.649-4.669-6.087-6.488-11.934-7.54q-2.127 2.341-4.25 4.688l-2.39 2.636a104 104 0 0 0-4.532 5.508L476 480h-2l-.48 1.828c-1.549 5.304-2.788 8.017-7.52 11.172l-2.687 2.688c-3.44 3.438-5.331 3.457-10.09 3.593l-3.494.114-3.666.105q-3.577.103-7.153.219l-3.214.092C433 500 433 500 430 501c-3.478 7.777-2.056 16.935-1.834 25.242.108 7.204-.213 13.142-3.166 19.758l-.826 1.91-.799 1.84c-1.19 2.81-1.92 5.249-2.375 8.25h-1l-1-5-2 3c-.77-8.283 2.277-16.412 5.688-23.875 1.427-3.398 1.94-6.47 2.312-10.125h-2l-.184-1.898-.253-2.477-.247-2.46C422 513 422 513 421 511c-.505-5.178.384-10.475 3-15 3.871-3.819 6.626-4.244 12.027-4.215 3.473.11 6.939.279 10.409.46 7.405.224 10.988-.29 16.564-5.245h2l.875-1.875C467 483 467 483 469 481a429 429 0 0 0 2.137-5.824c1.298-3.273 3.044-6.165 4.863-9.176h2l2-5h2v-2l6-1-6-2z"/><path fill="#bc7280" d="M606.425 157.534c11.729.15 23.134 3.07 33.575 8.466v2h2v2l2.812.75c3.366 1.32 4.447 2.155 6.188 5.25v2l-4-2-2.688-1.25C641 173 641 173 639.176 171.578c-7.073-5.443-14.554-6.372-23.176-7.578v-2q-4.938.21-9.875.438l-2.84.119-2.715.127-2.507.11C596 163 596 163 594 164c-1.346.146-2.696.26-4.047.355-5.102.526-9.47 2.044-14.203 3.958l-2.352.896c-4.422 1.747-7.744 3.68-11.398 6.791h-2v2h-2v2h-2l-.25 1.75c-.75 2.25-.75 2.25-2.563 4-2.96 3.046-4.443 6.413-6.187 10.25l-1.563 3.313c-4.808 12.334-5.563 24.23-5.648 37.351l-.086 7.34a2967 2967 0 0 0-.104 11.413c-.205 27.193-.205 27.193-3.599 40.583h-3q.212-2.657.437-5.312l.247-2.989C534 285 534 285 535 282c.093-2.164.125-4.33.126-6.497l.006-1.987q.006-2.14.006-4.277c.004-3.056.025-6.112.045-9.168.038-5.682.07-11.364.067-17.046 0-3.96.024-7.917.062-11.876q.015-2.24.005-4.48c-.04-8.414.705-16.044 3.037-24.16l.638-2.235c.645-2.05.645-2.05 2.008-5.274l3-1 .25-2.125c.929-3.56 2.63-5.883 4.75-8.875l1.437-2.75c1.925-2.771 3.446-3.11 6.563-4.25a91 91 0 0 0 4-4c4.667-4 4.667-4 7-4v-2c14.432-5.876 14.432-5.876 20.312-6.562 15.872-1.884 15.872-1.884 18.113-1.904"/><path fill="#874656" d="M754 471c3.945 2.602 5.264 5.094 6.313 9.563.935 5.797.868 11.582.687 17.437h2l.188 2.375L764 503c2.563 1.313 2.563 1.313 5 2v2c.392.03.392.03 2.375.188 4.978 1.115 9.15 3.415 13.625 5.812v2l1.875.25c2.125.75 2.125.75 3.25 2.469 1.023 2.667 1.075 4.684 1 7.531l-.055 2.703L791 530l-3-1v-6l-3-1v-2l-2.937-.812L779 518l-1-3-3.687-.312c-3.772-.465-6.14-1.544-9.313-3.688l-2.687-1C760 509 760 509 758 506c-.125-3.187-.125-3.187 0-6l-3-1-.332-3.832-.48-4.98-.213-2.526-.245-2.432-.206-2.237c-.655-2.49-1.468-3.461-3.524-4.993-5.714-.484-10.562.187-16 2l-1 3c-1.855 1.281-1.855 1.281-4.187 2.5l-2.481 1.297L724 488l-3 1.75c-6.283 2.618-12.408 2.512-19 1.25 1.786-2.26 2.663-2.947 5.559-3.406l2.879-.094c4.276-.14 6.314-.697 9.562-3.5l2.313-1.312c2.274-1.429 3.785-2.726 5.687-4.563 6.75-5.88 17.17-10.388 26-7.125"/><path fill="#faf7f6" d="M639 233c1.632 1.271 1.632 1.271 3 3a75 75 0 0 1 .25 8.5l-.016 2.34c-.045 3.289-.188 6.023-1.234 9.16h-2l-.75 1.75c-1.514 2.725-2.79 4.303-5.25 6.25-3.566.566-3.566.566-7.562.563l-2.038.072c-1.966-.006-1.966-.006-5.4-.635-2.63-3.036-3.493-5.58-3.25-9.562.931-7.05 5.49-12.395 10.25-17.438 4.562-3.081 8.447-4.57 14-4"/><path fill="#684852" d="M636 283c.305 2.23.305 2.23 0 5-2.117 2.238-2.117 2.238-4.875 4.313l-2.742 2.113C626 296 626 296 624 296v2c-5.412 4-5.412 4-8 4v3c-5.418 5.07-10.773 7.47-18.187 7.438-1.94-.111-3.88-.244-5.813-.438v-2l-1.75-.312c-2.607-.797-4.224-1.879-6.25-3.688v-2l-1.703-.824a99 99 0 0 1-7.047-3.988l-2.422-1.458C571 296 571 296 570.891 293.406L571 291c-2.5-1.687-2.5-1.687-5-3v-2h-2v-2c5.847 1.5 10.106 4.63 15 8a623 623 0 0 0 5.813 3.813l2.707 1.769c3.604 2.06 6.678 2.58 10.793 2.668l2.175.078c6.967-.91 13.196-5.328 19.137-8.828l2.523-1.473c3.294-1.924 6.575-3.854 9.813-5.87C634 283 634 283 636 283"/><path fill="#6a3138" d="M594 152c4.229-.116 8.457-.187 12.688-.25l3.63-.102 3.506-.039 3.222-.063c3.658.562 5.201 2.056 7.954 4.454 3.313.75 3.313.75 6 1v4l-2.473-.437c-8.333-1.306-16.464-1.756-24.902-1.75l-3.117-.002c-7.373.054-7.373.054-8.508 1.189-3.324.538-6.657.966-9.996 1.402C579 162 579 162 577 164c-2.164.633-2.164.633-4.625 1.125l-2.477.508L568 166v2c-1.68 1.508-1.68 1.508-3.875 3.125l-2.18 1.633C560 174 560 174 558 174l-.687 1.875C556 178 556 178 553.625 178.75c-3.556 1.693-4.211 3.859-5.73 7.375C547 188 547 188 545 190l-.5 2.063L544 194l-2 1a123 123 0 0 0-2 6.938c-1.783 6.845-1.783 6.845-4 9.062a154 154 0 0 0-2 7c-2.76-8.278-1.504-14.402 1.98-22.191 1.3-2.307 2.79-3.415 5.02-4.809h2l-.035-2.047-.028-2.703-.035-2.672c.17-4.464.17-4.464 1.098-6.578 2.215-1.379 2.215-1.379 4.938-2.562 4.859-2.133 4.859-2.133 7.062-5.438h2v-2h2l.75-1.812c1.473-2.579 2.723-3.64 5.25-5.188 2.473-.258 2.473-.258 5.063-.125 3.138.142 4.91.134 7.937-.875 2.059-.223 4.122-.407 6.188-.562l3.292-.254L591 158l1-3h5v-2z"/><path fill="#f9f0f1" d="M562.938 235.5c3.76.614 5.353 1.866 8.062 4.5l2 3 2.02.926c3.194 1.733 3.396 4.349 4.386 7.676.776 3.133 1.253 6.188 1.594 9.398h-3l-1 3c-3.916 1.958-8.612 1.347-12.75.313-4.492-2.62-6.65-6.495-8.25-11.313-.336-3.191-.336-3.191-.375-6.562l-.086-3.38c.707-4.69 2.741-6.765 7.399-7.558"/><path fill="#60252d" d="M639 228c3.027.905 5.575 1.948 8 4 .938 3.688.938 3.688 1 7l1 1c.126 2.31.176 4.624.188 6.938l.042 3.84C649 254 649 254 647 256q-1.01 2.495-2 5c-1.5 2.813-1.5 2.813-3 5h-2l-1 3-4-2c1.143-2.806 2.263-4.25 4.5-6.375 5.036-5.288 5.01-11.62 4.867-18.605-.367-3.02-.367-3.02-2.304-6.395-4.32-2.292-7.426-1.854-12.063-.625-4.599 1.818-6.761 5.097-9.473 9.063C619 246 619 246 616.895 247.426c-2.502 2.078-2.651 3.593-3.145 6.762l-.453 2.73L613 259c-3.32-.386-5.64-.775-8.5-2.562-3.102-1.784-4.97-1.813-8.5-1.438q-2.012.974-4 2c-2.562.438-2.562.438-5 0-2.805-3.406-3.497-6.678-4-11l3 1c.73 1.848.73 1.848 1.188 4.063l.48 2.222L588 255h5v-3l2.922-.043 3.828-.144 3.797-.106C607 251 607 251 609.262 248.766L611 246l1.598-2.535 1.465-2.528c3.855-6.636 3.855-6.636 5.937-8.937 2.022-.289 4.049-.57 6.086-.719C628 231 628 231 630.062 229.437c3.044-2.258 5.237-1.869 8.938-1.437"/><path fill="#37363a" d="M512 477c12.084-.61 23.706 2.376 32.938 10.625L547 490c1.701 1.837 2.774 2.897 5.063 3.938 2.41 1.321 2.828 2.607 3.937 5.062l2 1 1 3 1.5 1.5c2.875 2.875 2.776 6.386 2.938 10.25-.032 4.37-.37 7.052-3.125 10.5-2.242 2.199-3.004 2.703-6.188 3.188L552 528v2c-6.75.125-6.75.125-9-1-1.062-1.937-1.062-1.937-2-4l-1-2 3 1c3.736.45 7.273.57 11 0 3.42-3.103 4.25-5.964 4.625-10.437-.173-4.653-2.063-6.971-5.312-10.153C552 502 552 502 552 500l-1.937-.75L548 498l-.383-1.988L547 494c-1.715-.871-1.715-.871-3.937-1.437-3.608-1.04-6.7-2.339-10-4.125-4.229-2.197-8.107-3.26-12.79-4.036-2.87-.507-5.543-1.396-8.273-2.402z"/><path fill="#d58d9b" d="M606.425 157.534c11.729.15 23.134 3.07 33.575 8.466v2h2v2l2.812.75c3.366 1.32 4.447 2.155 6.188 5.25v2l-4-2-2.688-1.25C641 173 641 173 639.176 171.578c-7.073-5.443-14.554-6.372-23.176-7.578v-2q-4.938.21-9.875.438l-2.84.119-2.715.127-2.507.11C596 163 596 163 594 164c-1.346.146-2.696.26-4.047.355-5.102.526-9.47 2.044-14.203 3.958l-2.352.896c-4.422 1.747-7.744 3.68-11.398 6.791h-2v2h-2v2h-2v2l-4 1c.553-3.707 1.9-5.142 4.75-7.5l2.18-1.816L561 172l2.875-2.437C566 168 566 168 568 168v-2c14.432-5.876 14.432-5.876 20.312-6.562 15.872-1.884 15.872-1.884 18.113-1.904"/><path fill="#272529" d="M551 304c1.19 3.57.468 4.466-1.05 7.73-1.159 2.77-1.98 5.578-2.825 8.457-1.662 5.54-3.686 10.8-5.973 16.11a126 126 0 0 0-2.652 6.765c-1.868 5.107-4.208 10.01-6.5 14.938h-2l-.25 3c-.53 3.769-1.927 6.628-3.703 9.96-2.23 4.345-3.73 8.911-5.047 13.603-1 3.437-1 3.437-2.562 6.875-1.62 4.012-2.062 7.274-2.438 11.562l-4 1v-4h2l-.187-3.5c-.007-3.966.887-6.888 2.406-10.516C517 384 517 384 517.875 380.25c1.651-7.053 4.821-13.826 8.125-20.25h2l-.25-2.5c.276-3.862 1.283-5.929 3.094-9.266 2.039-3.94 3.563-8.098 5.156-12.234h2v-4h2l.375-2.062c1.436-6.75 3.632-13.334 5.625-19.938h2v-5z"/><path fill="#222226" d="M673 467.438c3.923.09 6.163.784 9 3.562v3l-2.062-1c-3.557-1.21-6.205-1.415-9.938-1-2.908 2.94-3.428 5.313-3.664 9.367l-.196 3.23c-.24 5.841-.385 11.683-.515 17.528-.45 17.029-1.952 33.928-3.625 50.875l-4 1 .481-2.573c.523-3.453.717-6.769.816-10.259l.06-1.982q.093-3.215.178-6.428l.13-4.48q.17-5.875.33-11.749.17-6.003.343-12.006.337-11.76.662-23.523l3-1-.25-2.625c.477-6.439 2.711-9.735 9.25-9.937"/><path fill="#a75d6b" d="m705 322 .227 2.012c1.102 7.405 1.102 7.405 4.648 10.488l1.605 1.086c2.64 2.455 3.446 5.755 4.563 9.11C717 347 717 347 718.57 348.542c2.562 2.611 2.141 5.933 2.43 9.457h1l1-4 1.125 2.313c2.075 4.179 4.384 8.229 6.668 12.296C732 371 732 371 732 373h2a618 618 0 0 1 2.5 5.25l1.406 2.953C739 384 739 384 739 388h2l3 10-3 1-1-4h-2l-.312-2.312c-.764-2.987-1.485-3.655-3.688-5.688-2.161-3.026-3.223-5.66-4-9.25l-1-3.75-3-1c-4.043-5.121-6.375-11.068-9-17-1.414-2.992-2.707-5.609-4.687-8.25C711 346 711 346 711 344l-3-1v-2h2c-1.072-3.539-2.61-5.812-5.062-8.5-2.478-2.754-3.707-4.686-3.938-8.5 3-2 3-2 4-2"/><path fill="#632f3b" d="m600.57 161.902 2.715.01 2.84.025 2.863.014q3.507.018 7.012.049v2l3.438-.188c8.062.029 15.2 3.369 21.562 8.188v1c-3.671.204-5.798-.233-9-2h-2v-2l-3.36-.148-4.39-.227c-.73-.03-1.46-.062-2.21-.094-3.906-.213-6.605-.764-10.04-2.531-3.094-.23-3.094-.23-6.5-.188l-3.406.02c-2.563.14-4.638.522-7.094 1.168l-2.062-.563L589 166l-3 2-2.187.312c-3.41.834-5.722 2.384-8.633 4.301-2.215 1.409-4.478 2.614-6.805 3.824-4.235 2.297-7.066 5.093-10.375 8.563h-2l-2 4h-2v3h-3l-1 4-1-2c.89-2.094.89-2.094 2.25-4.5l1.328-2.406C552 185 552 185 555 183l1-3h2v-2h2v-2c9.932-7.45 21.663-12.02 34-13 2.4-1.2 3.894-1.115 6.57-1.098"/><path fill="#c97789" d="M671 266h1l4 24h2c3 5.625 3 5.625 3 9h2c1.72 2.594 3.27 5.24 4.814 7.94 2.793 4.742 6.073 8.267 10.249 11.81 1.912 2.22 2.71 3.884 3.812 6.563 1.695 4.121 3.819 6.94 6.953 10.082C710 337 710 337 710 341c-2.857-.35-3.9-.896-5.93-3.004l-1.945-2.558-2.117-2.754L698 330l-1.57-2.09a930 930 0 0 1-2.867-3.851c-1.804-2.376-3.68-4.683-5.563-6.997-12-14.919-12-14.919-12-21.062h-2c-2.22-10.178-3.441-19.539-3-30"/><path fill="#2f2f32" d="M504 368h2c.688 1.563.688 1.563 1 4-.663 1.69-1.34 3.377-2.113 5.02-.935 2.087-1.636 4.175-2.325 6.355a75 75 0 0 1-3.437 8.75c-8.008 17.557-9.798 32.817-8.125 51.875l-3-1v-3h-2c-3.972-10.138-1.162-20.953 2-31l.938-3.562c1.419-4.592 3.223-9 5.062-13.438h2l-.145-2.133c.17-3.371 1.1-5.658 2.457-8.742l1.375-3.164L501 375q.909-2.124 1.813-4.25z"/><path fill="#874453" d="m571 235 2.5.313c2.5.687 2.5.687 4.188 2.937 1.218 2.552 2.327 5.099 3.312 7.75h2l.734 2.117 1.016 2.758.984 2.742c1.436 2.703 2.44 3.35 5.266 4.383l-5 2v2h-3l.125-3.187c-.266-8.103-5.06-13.492-10.375-19.25-3.97-2.256-8.192-2.988-12.75-2.563-1.777 1.11-1.777 1.11-3 3-1.025 6.748-.778 13.49 2.809 19.414 2.345 3.122 4.385 5.193 8.289 6.043 1.958.26 3.93.41 5.902.543-1 2-1 2-2.848 2.633l-2.215.492-2.222.508L565 270l1 3c-1.375 1.5-1.375 1.5-3 3h-2l-1 9h-2a268 268 0 0 1-.125-4.25l-.07-2.39c.218-2.636.765-4.144 2.195-6.36l3-2 1-3h-2l-.75-1.875C560 263 560 263 558 262.156c-2-1.156-2-1.156-2.828-3.32l-.422-2.461-.453-2.477c-.05-.313-.05-.313-.297-1.898h-1c-.082-2.062-.14-4.125-.187-6.187l-.106-3.481c.32-3.63 1.125-5.442 3.293-8.332 4.541-2.187 10.988-1.674 15 1"/><path fill="#271215" d="m634 283 2 1-4 2v2h-2v2c-1.74 1.3-3.546 2.515-5.375 3.688a239 239 0 0 0-14.273 9.964C605.387 306.498 599.57 306.36 594 306c-2.25-1.437-2.25-1.437-4-3-2.25-.687-2.25-.687-4-1v-2l-2.875-.812C580 298 580 298 578 295l-2.375-.937c-2.98-1.207-4.413-2.777-6.625-5.063l-3-1v-2h-2v-2c5.847 1.5 10.106 4.63 15 8a623 623 0 0 0 5.813 3.813l2.707 1.769c3.604 2.06 6.678 2.58 10.793 2.668l2.175.078c6.967-.91 13.196-5.328 19.137-8.828l2.523-1.473c3.306-1.932 6.593-3.86 9.813-5.933z"/><path fill="#61343f" d="M434 492v2l-6 1v2l-1.468 1.333c-1.994 2.17-1.95 3.422-2.044 6.335l-.107 2.705-.068 2.815-.104 2.85q-.123 3.48-.209 6.962h2l-.105-3.395q-.043-2.208-.082-4.418l-.077-2.236c-.074-5.5-.074-5.5 1.776-7.963L429 501l1 2-.932 2.218c-1.269 3.305-1.25 5.765-1.158 9.298l.06 3.793q.093 3.918.196 7.836c.108 7.234-.194 13.212-3.166 19.855l-.826 1.91-.799 1.84c-1.19 2.81-1.92 5.249-2.375 8.25h-1l-1-5-2 3c-.77-8.283 2.277-16.412 5.688-23.875 1.427-3.398 1.94-6.47 2.312-10.125h-2l-.184-1.898-.253-2.477-.247-2.46C422 513 422 513 421 511c-.522-5.348.568-10.235 3-15 3.668-3.2 5.1-4 10-4"/><path fill="#602b35" d="M546 196h1c.043 1.666.04 3.334 0 5l-1 1c-.537 2.475-.964 4.963-1.402 7.457C544 212 544 212 542.973 213.814c-1.215 2.73-1.185 4.72-1.133 7.706l.036 3.47.062 3.822c.02 2.78.03 5.56.039 8.34l.008 2.29c.032 9.76-.006 19.517-.137 29.276a721 721 0 0 0-.044 6.282 697 697 0 0 1-.097 8.93l.012 2.676c-.154 6.592-2.166 10.909-5.719 16.394l-1.625 2.875c-1.306 2.018-2.685 3.435-4.375 5.125l-1.5 2.563C527 316 527 316 524 318l.813-1.562C526 314 526 314 527.25 310.688c1.492-3.581 3.65-6.063 6.348-8.817 6.685-8.92 4.555-24.54 4.683-35.137l.056-3.634c.078-5.063.146-10.126.215-15.189q.08-5.589.167-11.177l.04-3.422c.206-13.224 1.595-25.212 7.241-37.312"/><path fill="#5f2b35" d="m572 160-2.375 2.313C567 165 567 165 565 168c-1.84 1.063-1.84 1.063-3.937 2-2.963 1.329-4.784 2.715-7.063 5h-2v2l-2 1c-1 2.328-1 2.328-2 5.25-3.66 10.58-3.66 10.58-6 11.75a123 123 0 0 0-2 6.938c-1.783 6.845-1.783 6.845-4 9.062a154 154 0 0 0-2 7c-2.76-8.278-1.504-14.402 1.98-22.191 1.3-2.307 2.79-3.415 5.02-4.809h2l-.035-2.047-.028-2.703-.035-2.672c.17-4.464.17-4.464 1.098-6.578 2.215-1.379 2.215-1.379 4.938-2.562 4.859-2.133 4.859-2.133 7.062-5.438h2v-2h2l.75-1.812c2.81-4.92 5.77-5.562 11.25-5.188"/><path fill="#622c37" d="M641 173c9.542 5.163 15.924 14.155 20 24l1.078 2.39c6.218 14.386 6.307 28.022 6.11 43.423q-.024 3.09-.042 6.181c-.032 5.002-.084 10.004-.146 15.006h2l.113 3.586c.603 15.403.603 15.403 3.364 22.469.625 2.325.281 3.69-.477 5.945-4.722-6.654-5.288-14.072-5-22h-1v-50h-2l-1 3c-.934-3.01-1.044-3.867 0-7 .513-7.431-.832-13.748-5-20v-4l-3 1-.312-3.875c-1.277-6.159-5.702-9.195-10.352-12.96-.77-.715-1.542-1.43-2.336-2.165v-3h-2z"/><path fill="#9f6270" d="M465 490c-1.146 3.438-1.957 4.174-5 6h-4v2l-2.156.044c-3.22.075-6.438.171-9.656.269l-3.393.068-3.252.107-3 .08c-2.913.495-3.651 1.26-5.543 3.432h-2l-1 18h-2c-.058-3.27-.094-6.541-.125-9.812l-.05-2.815-.02-2.705-.032-2.491C424 500 424 500 426 497h2v-2c6.835-2.958 14.187-2.42 21.498-2.566l3.17-.09 2.884-.057C459.45 491.83 460.764 490 465 490"/><path fill="#9f626e" d="M760 500h2l1 2a134 134 0 0 0 6 3v2l2.375.188c4.978 1.115 9.15 3.415 13.625 5.812v2l1.875.25c2.125.75 2.125.75 3.25 2.469 1.023 2.667 1.075 4.684 1 7.531l-.055 2.703L791 530l-3-1v-6l-3-1v-2l-2.937-.812L779 518l-1-3-3.5-.187c-4.927-.605-8.673-2.705-12.5-5.813-2.29-3.435-2.178-4.985-2-9"/><path fill="#964f57" d="M536 210c1.426 2.852 1.098 5.242 1.07 8.43l-.015 2.002q-.029 3.293-.07 6.584l-.05 4.599q-.056 4.838-.122 9.674c-.054 4.095-.091 8.19-.124 12.284-.028 3.175-.069 6.35-.113 9.524a714 714 0 0 0-.043 4.52c-.068 9.818-1.08 18.837-3.533 28.383h3l1-8h1c-.29 6.395-1.352 10.693-5 16l-2 1 1-5-2.25 2.25L523 309l2-6h2l-.062-2.375C527 298 527 298 528 296l-.5-2.437C527 291 527 291 528 288l3-1c4.29-5.718 3.36-12.56 3.258-19.36l-.03-5.958c-.018-2.775-.05-5.55-.08-8.325-.052-4.839-.085-9.678-.114-14.517q-.025-3.856-.07-7.713c-.113-13.609-.113-13.609 1.036-20.127z"/><path fill="#c27c8b" d="M530 300h2c-.75 5.75-.75 5.75-3 8l-1.25 3.125c-1.558 3.816-3.805 6.794-6.336 10.023C520 323 520 323 518.375 325.75c-1.512 2.475-3.33 4.206-5.375 6.25l-1 2.188-1 1.812-2 .438-2 .562a125 125 0 0 0-2 5l-3 1v-3h2v-4h2l.75-2.875c1.424-3.56 1.967-3.642 5.25-5.125.625-1.875.625-1.875 1-4a88 88 0 0 1 2-4h3l.293-1.66c.894-2.96 2.34-5.184 4.02-7.777l1.8-2.81c1.855-2.706 3.718-5.289 5.887-7.753"/><path fill="#d4919f" d="M568 237c6.468 3.007 11.643 7.672 15 14 .886 3.954 1.39 7.14 0 11h3v-2c3.675-2.84 5.269-4 10-4v2h-4l-.723 1.797c-1.547 2.669-3.139 3.778-5.715 5.453l-2.37 1.578C581 268 581 268 578 268v2h-6v2h-7v-2c2.918-1.945 4.625-2.453 8-3l-3.437-.375L566 266l-1-2 2.082.105 2.73.082 2.708.106c2.961-.35 3.527-1.161 5.48-3.293h3a1082 1082 0 0 0-1.375-5.75l-.773-3.234c-1.808-6.4-1.808-6.4-5.29-8.453-2.957-1.804-4-3.52-5.562-6.563"/><path fill="#814350" d="M660 186h3l3 6h2l1 9h2l.148 1.793.227 2.394c.07.778.14 1.555.21 2.356.415 2.457.415 2.457 1.419 4.668 1.442 4.039 1.425 7.966 1.558 12.226q.105 2.73.215 5.461l.105 2.675c.146 3.008.443 5.993.743 8.99.899 11.433-.08 23-.625 34.437h-1q-.4-7.065-.797-14.13-.21-3.742-.426-7.485c-.452-7.974-.849-15.94-1.071-23.925-.4-13.077-2.017-25.8-8.558-37.382-1.267-2.293-2.216-4.632-3.148-7.078"/><path fill="#3b2d35" d="M483 454c1.439.087 2.876.196 4.313.313l2.425.175c2.677.606 3.565 1.396 5.262 3.512l1.438 2.563c1.663 2.595 2.73 3.363 5.562 4.437v9l-1.066-1.46c-3.649-4.669-6.087-6.488-11.934-7.54l-1.793 2.012c-3.971 4.437-7.927 8.846-12.207 12.988v-4h2l.25-2.187c.905-3.395 2.463-5.18 4.75-7.813l2-3c3.125-.687 3.125-.687 6-1v-1c-3.522-.08-6.62-.04-10 1l2-1v-2l6-1-6-2z"/><path fill="#814858" d="M719 359c3.394 3.126 5.606 5.565 7 10h2l1-4c3 5.75 3 5.75 3 8h2a618 618 0 0 1 2.5 5.25l1.406 2.953C739 384 739 384 739 388h2l3 10-3 1-1-4h-2l-.312-2.312c-.764-2.987-1.485-3.655-3.688-5.688-2.161-3.026-3.223-5.66-4-9.25l-1-3.75-3-1c-7-9.406-7-9.406-7-14"/><path fill="#944b5b" d="m594.5 156.886 3.285.016 3.545.01 3.733.025 3.744.014q4.597.018 9.193.049l1 2-2.37-.016q-5.284-.029-10.567-.047l-3.733-.025-3.545-.01-3.285-.016C593 159 593 159 592 160c-3.324.538-6.657.966-9.996 1.402C579 162 579 162 577 164c-2.164.633-2.164.633-4.625 1.125l-2.477.508L568 166v2c-1.68 1.508-1.68 1.508-3.875 3.125l-2.18 1.633C560 174 560 174 558 174l-.687 1.875C556 178 556 178 553.625 178.75c-3.993 1.901-4.98 5.299-6.625 9.25l-1-2c.777-2.164.777-2.164 1.938-4.625l1.152-2.477L550 177h2v-2c2.082-1.727 2.082-1.727 4.813-3.625l2.707-1.914C562 168 562 168 565 168l.625-1.75c2.344-3.835 5.692-5.81 10-6.938a479 479 0 0 1 6.387-.55l3.3-.262 3.176-.219c2.873-.321 3.126-1.263 6.012-1.395"/><path fill="#b36672" d="M617 246c0 2.664-.239 5.112-.562 7.75-.458 4.336-.273 7.983.562 12.25l5 2v1h-6v-2l-5-1-1-3h-7v-3l-10-1v2l-2-1 1-2h4l-1-3c1-1 1-1 3.625-1.312 4.413.408 6.602 2.006 10.375 4.312 1.322.376 2.654.72 4 1l.113-2.082.2-2.73.175-2.708c.575-2.786 1.333-3.721 3.512-5.48"/><path fill="#7c3e48" d="M640 231c1.82 1.383 1.82 1.383 3 3-.312 2.188-.312 2.188-1 4l-.937-2.062C639 234 639 234 636.973 233.852c-4.622.415-8.346 1.11-11.973 4.148a102 102 0 0 0-4.473 6.063C619 246 619 246 616.895 247.426c-2.502 2.078-2.651 3.593-3.145 6.762l-.453 2.73L613 259c-5.538-.615-5.538-.615-7.875-2.562L604 255l2.348-.246C609 254 609 254 610.37 252.214l1.067-2.276c3.45-6.816 8.08-14.804 15.187-18.188 4.423-.983 8.875-1.47 13.375-.75"/><path fill="#894c56" d="m615 267 1 2h1.88c22.12 0 22.12 0 24.308 1.5 2.074 2.861 2.502 4.997 2.343 8.527-.99 3.68-3.4 4.97-6.531 6.973h-2v-3l-1.898 1.129-2.477 1.433-2.46 1.442L627 288l-2-1c3.13-3.308 6.08-5.713 10-8l1-2h2v3h2c-.187-2.375-.187-2.375-1-5-4.532-2.485-9.768-2.888-14.812-3.625l-2.678-.406q-3.255-.493-6.51-.969z"/><path fill="#5b424b" d="m734 474 2 1c-3.75 3-3.75 3-6 3v3c.534-.36 1.067-.722 1.617-1.094 5.967-3.716 10.413-4.56 17.383-3.906v1l-2.52.402-3.293.536-3.269.527C737 479 737 479 734 480l-1 3c-1.855 1.281-1.855 1.281-4.187 2.5l-2.481 1.297L724 488l-3 1.75c-6.283 2.618-12.408 2.512-19 1.25 1.786-2.26 2.663-2.947 5.559-3.406l2.879-.094c4.276-.14 6.314-.697 9.562-3.5l2.313-1.312c2.989-1.877 5.507-4.04 8.136-6.383C732 475 732 475 734 474"/><path fill="#aa6672" d="M668 240h1l2 16 1-16h1l.152 3.146q.287 5.843.593 11.686.129 2.516.25 5.033c.821 17.026.821 17.026 2.705 24.212.35 2.239-.02 3.78-.7 5.923-1.72-5.98-3.312-11.808-4-18l-.062 3.813-.036 2.144C672 280 672 280 673 283c.04 2.333.044 4.667 0 7h-1c-1.747-5.997-2.257-11.274-2.125-17.5l.027-2.492c.024-2.003.06-4.006.098-6.008h-2z"/><path fill="#8e5f6a" d="M754 471v3l1.438 2.25c1.855 3.265 2.198 6.041 2.562 9.75l-2 1-.25-2.875C755 481 755 481 753.063 479.75L751 479l-2-2c-6.859-1.078-11.338.225-17 4h-2v-3c7.501-6.551 14.335-8.59 24-7"/><path fill="#4a161f" d="M620 232h4c-1.458 3.402-3.404 5.404-6 8-1.614 2.504-2.973 4.937-4.148 7.676-1.365 2.933-2.536 5.047-4.852 7.324-3.497.64-6.447.518-9.977.156-3.181-.164-4.36.243-7.023 1.844-2.562.438-2.562.438-5 0-2.805-3.406-3.497-6.678-4-11l3 1c.73 1.848.73 1.848 1.188 4.063l.48 2.222L588 255h5v-3l2.922-.043 3.828-.144 3.797-.106C607 251 607 251 609.262 248.766L611 246l1.598-2.535 1.465-2.528c3.936-6.777 3.936-6.777 5.937-8.937"/><path fill="#644c53" d="m635 284 1 4a986 986 0 0 1-4.875 4l-2.742 2.25C626 296 626 296 624 296v2c-5.412 4-5.412 4-8 4v3c-3.606 2.576-7.779 5.36-12.312 4.625L602 309c4.252-3.692 8.692-6.956 13.328-10.152a401 401 0 0 0 5.469-3.852l2.703-1.933 2.469-1.778C628 290 628 290 630 290v-2h2v-2z"/><path fill="#995d6b" d="M555 240h1l.078 2.563c.424 8.486 1.329 14.545 7.172 20.875 3.67 2.085 6.553 2.277 10.75 2.562-1 2-1 2-2.848 2.633l-2.215.492-2.222.508L565 270l1 3c-1.375 1.5-1.375 1.5-3 3h-2l-1 9h-2a268 268 0 0 1-.125-4.25l-.07-2.39c.218-2.636.765-4.144 2.195-6.36l3-2 1-3h-2l-.75-1.875c-1.478-2.512-2.69-2.886-5.25-4.125-.922-2.766-1.118-4.383-1.098-7.23l.01-2.432.025-2.525.014-2.561q.02-3.126.049-6.252"/><path fill="#68343e" d="m543 189 2 1c-.375 1.938-.375 1.938-1 4l-2 1a123 123 0 0 0-2 6.938c-1.783 6.845-1.783 6.845-4 9.062a154 154 0 0 0-2 7c-2.76-8.278-1.504-14.402 1.98-22.191 1.3-2.307 2.79-3.415 5.02-4.809h2z"/><path fill="#2e2e30" d="M562 509h1c1.032 11.637 1.032 11.637-2.687 16.25-2.242 2.199-3.004 2.703-6.188 3.188L552 528v2c-6.75.125-6.75.125-9-1-1.062-1.937-1.062-1.937-2-4l-1-2 3 1c3.735.45 7.276.586 11 0 3.596-3.596 4.524-7.004 5-12h1v8h2z"/><path fill="#372324" d="M462 427h1q.079 2.187.125 4.375l.07 2.46C463 436 463 436 461 438c-.403 4.113-.329 8.233-.316 12.364.003 2.035-.02 4.068-.045 6.103-.004 7.988.736 14.97 3.361 22.533h6l-2 4c-4.254-2.3-7.1-4.42-8.73-9.094-2.968-15.625-1.98-31.767 2.73-46.906"/><path fill="#6c5256" d="m625 285 2 1c-1.286 3.857-2.509 4.066-6.062 5.875-4.216 2.195-8.232 4.507-12.184 7.145-3.33 1.861-6.61 2.154-10.379 2.23l-2.352.078L594 301l-2-3h11v-2l2.512-.746c3.997-1.437 7.58-3.287 11.3-5.317l2.061-1.103c4.978-2.685 4.978-2.685 6.127-3.834"/><path fill="#391620" d="m438.543 498.805 3.252.02 3.392.05 3.428.027q4.192.036 8.385.098c-2.578 2.578-4.44 2.621-8 3l-1-1a101 101 0 0 0-5.875-.188l-3.242-.042C436 501 436 501 433 503a113 113 0 0 0-3 5l-1 1q.366 2.354.738 4.707c.809 7.084.536 14.287-.738 21.293h-1c-1.91-27.193-1.91-27.193 2-34 3.399-2.266 4.563-2.237 8.543-2.195"/><path fill="#924755" d="M593 259h11v3l4 1-1 5-1-4h-2v4h-2v-8h-8v2h-2v5l-1-3a1100 1100 0 0 0-5.437 3.375l-3.06 1.898C580 271 580 271 579 273l-1.937-.562L575 272l-1 1c-3.373.562-6.578 1-10 1 2-2 2-2 5.125-2.125L572 272v-2h6v-2l1.863-1.023 4.875-2.688c1.797-1.024 3.541-2.142 5.262-3.289h3z"/><path fill="#ce7f8b" d="M671 266h1l4 24h2c2.666 4.554 3.316 7.74 3 13h-3c-1.46-2.647-2-3.894-2-7h-2c-2.22-10.178-3.441-19.539-3-30"/><path fill="#b36f7b" d="m515 320 2 1-2 4h2l2-4h3q-1.402 1.909-2.812 3.813l-1.583 2.144C516 329 516 329 514.36 330.629 513 332 513 332 512.062 334.125c-.35.619-.7 1.238-1.062 1.875l-2 .438-2 .562a125 125 0 0 0-2 5l-3 1v-3h2v-4h2l.75-2.875c1.424-3.56 1.967-3.642 5.25-5.125.625-1.875.625-1.875 1-4a88 88 0 0 1 2-4"/><path fill="#c2818f" d="M465 490c-1.152 3.455-1.988 4.107-5 6-3.18 1.026-6.093 1.116-9.422 1.098l-3.105-.01-3.223-.026-3.27-.013q-3.99-.018-7.98-.049c1.638-1.98 2.528-2.913 5.097-3.385l2.395-.021 2.637-.067 2.746-.027c7.092-.071 12.69-3.5 19.125-3.5"/><path fill="#834d54" d="m495 357 1 2c-1.433 2.946-2.942 4.946-5.348 7.18-3.097 3.293-4.944 6.626-6.964 10.632l-1.088 2.1A699 699 0 0 0 480 384h-2c.52-4.476 1.65-7.205 4-11a133 133 0 0 0 2.156-6.133c.965-2.135 2.15-3.268 3.844-4.867l2-3v3h2l.938-1.937C494 358 494 358 495 357"/><path fill="#74444f" d="m774 508 11 5v2l1.875.25c2.125.75 2.125.75 3.25 2.469 1.023 2.667 1.075 4.684 1 7.531l-.055 2.703L791 530l-3-1v-6l-3-1v-2l-2.937-.875C779 518 779 518 778 516h5v-2l-1.625-.312c-3-.869-5.613-2.244-8.375-3.688z"/><path fill="#e4c2c7" d="M639 233c1.813 1.5 1.813 1.5 3 3l-1 2-2-2c-2.625-.562-2.625-.562-6 0-2.947 2.053-5.452 4.478-8 7l-2.875 2.688c-4.162 4.53-4.527 8.33-5.125 14.312l-2-1c-.458-8.277 2.594-13.02 7.578-19.434 4.63-4.906 9.658-7.26 16.422-6.566"/><path fill="#763e4b" d="M596 162h20v2l3.438-.187c8.062.028 15.2 3.368 21.562 8.187v1c-3.671.204-5.798-.233-9-2h-2v-2c-4.997-1.63-9.615-2.335-14.863-2.656C613 166 613 166 611 164a102 102 0 0 0-7.625-.625l-2.14-.117c-1.745-.094-3.49-.177-5.235-.258z"/><path fill="#713942" d="M673 220h1c2.294 18.787 1.874 37.15 1 56h-1c-1.237-11.765-1.114-23.499-1.062-35.312q.008-3.019.013-6.038.017-7.325.049-14.65"/><path fill="#50272b" d="M516 328c0 5.513-2.37 8.773-6 12.75l-2.125 2.36C506 345 506 345 504 346c-.625 2.563-.625 2.563-1 5l-3 1a90 90 0 0 0-2 4l-2 1c.51-4.7 2.677-7.885 5.375-11.625l1.21-1.734c4.85-6.858 4.85-6.858 8.415-8.641a264 264 0 0 0 3-5z"/><path fill="#402830" d="m736 389 2 1v5h2l5 12 2-2c.625 1.813.625 1.813 1 4l-2 3c.426 1.902.426 1.902 1.313 3.938 3.17 7.446 3.17 7.446 1.687 12.062h-2l-.297-1.73c-1.815-9.845-4.618-19.202-8.887-28.258-1.215-2.996-1.543-5.802-1.816-9.012"/><path fill="#522028" d="M697 329c4.652 3.102 7.308 7.081 10.352 11.66 1.432 2.034 2.85 3.64 4.648 5.34 3.589 4.133 5.288 7.865 7 13-3-1-3-1-4.437-3.5-1.563-2.5-1.563-2.5-3.75-3.312L709 352l-.187-3.125c-.8-3.811-1.74-5.446-4.336-8.262-1.716-1.874-3.252-3.84-4.79-5.863l-1.55-2.016C697 331 697 331 697 329"/><path fill="#d6838f" d="M537 263h1c.059 4 .094 8 .125 12 .017 1.125.034 2.25.05 3.41.037 6.24-.317 11.622-2.175 17.59h-3q.212-2.657.438-5.312c.08-.987.162-1.973.246-2.989C534 285 534 285 535 282c.134-1.395.223-2.795.281-4.195l.114-2.418.21-5.047c.294-6.239.294-6.239 1.395-7.34"/><path fill="#be6f80" d="M696 319c2.486.975 3.746 1.539 5.055 3.918l.82 2.27c1.687 4.197 3.773 7.018 6.953 10.207C710 337 710 337 710 341c-2.989-.335-3.959-.957-6.07-3.18l-2.055-2.695-2.07-2.68A139 139 0 0 1 696 327l3-2-1.5-1.875C696 321 696 321 696 319"/><path fill="#653440" d="M471 483c1 2 1 2 .375 4.313-2.624 5.128-7.237 9.118-12.375 11.687-1.923.154-3.85.25-5.777.316l-3.494.127-3.666.12-3.655.13c-8.717.307-8.717.307-12.408.307 2-2 2-2 4.43-2.227l3.015.032 3.262.02 3.418.05 3.441.027q4.218.036 8.434.098v-2l2.125-.687c6.06-2.767 9.514-6.755 12.875-12.313"/><path fill="#2c2c31" d="M673 467.438c3.923.09 6.163.784 9 3.562v3l-2.062-1c-3.53-1.202-6.231-1.343-9.938-1-2.595 1.643-2.924 2.703-3.687 5.688L666 480h-2c-.35-3.679-.03-5.926 1.375-9.375 2.965-2.965 3.617-3.063 7.625-3.187M662 480l2 1-2 1z"/><path fill="#c27a8d" d="m552 178 2 1-2 4 4-1-1.137 1.469c-3.219 4.216-6.133 8.466-8.785 13.062L545 198h-2c.643-7.84.643-7.84 4-11 1.133-2.008 1.133-2.008 2.125-4.125 1.792-3.792 1.792-3.792 2.875-4.875"/><path fill="#6b434f" d="M425 534h1c.18 3.947.094 6.598-2 10h-2l.188 2.813C422 550 422 550 420.625 551.688L419 553l-2 3c-.379-5.93.894-10.472 3-16h2l.938-2.437C424 535 424 535 425 534"/><path fill="#cb8494" d="M669 221h1c1.429 11.735 2.294 23.172 2 35l-2 1c-1.056-7.712-1.116-15.287-1.062-23.062l.013-3.78q.018-4.579.049-9.158"/><path fill="#3e4042" d="m708 396 4 1c2.889 10.78 2.19 21.944 2 33h-1l-.136-1.769c-.214-2.703-.445-5.404-.677-8.106l-.212-2.781c-.502-5.7-1.529-10.83-3.36-16.255C708 399 708 399 708 396"/><path fill="#aa7174" d="m642 238 3 1c.575 14.16.575 14.16-3 20a93 93 0 0 1-3.187 3.25L636 265v3l-3-1c1.208-3.142 2.368-4.307 5.031-6.531 3.39-3.333 3.71-6.113 3.852-10.75l-.008-2.594.063-2.664c.046-2.153.058-4.307.062-6.461"/><path fill="#471b25" d="M594 163q4.188-.08 8.375-.125l2.406-.05c2.074-.018 4.148.072 6.219.175l2 2c2.559.466 5.047.835 7.625 1.125l2.14.262c1.745.212 3.49.413 5.235.613v1c-2.25.054-4.5.093-6.75.125l-3.797.07c-3.355-.19-4.586-.721-7.453-2.195-3.094-.23-3.094-.23-6.5-.187l-3.406.019c-3.094.168-3.094.168-5.313.805L593 167l-3-2h4z"/><path fill="#442d36" d="M588 302c4.875 1.875 4.875 1.875 6 3 2.02.072 4.042.084 6.063.063l3.347-.028L606 305l-3 4 6-1c-3.323 3.938-3.323 3.938-6.75 4.25L600 312v-2l-5-1v-2h-3v-2h-4z"/><path fill="#a35a67" d="M624 160c5.273.445 10.018 1.084 15 3v2l5 2v2h2v2l1.797.309c2.565.805 3.63 1.807 5.453 3.754l1.578 1.66L656 178l-1 2-3-2v-2h-2l-2-3a100 100 0 0 0-6-3v-2h-2v-2l-1.61-.371c-2.927-.77-5.771-1.725-8.64-2.691l-3.266-1.098L624 161z"/><path fill="#3c363a" d="m720 484 2 1-3 2 6-1c-2.321 3.482-3.081 3.833-7 5-5.566 1.013-10.45 1.063-16 0 1.786-2.26 2.663-2.947 5.559-3.406l2.879-.094c4.231-.138 6.368-.66 9.562-3.5"/><path fill="#c17f8e" d="M754.25 473.375c2.6 3.9 3.085 8.041 3.75 12.625l-2 1-2.148-5.86c-.835-2.096-1.843-4.121-2.852-6.14h-11v-2c10.396-1.98 10.396-1.98 14.25.375"/><path fill="#25242d" d="M504 368h2c.688 1.563.688 1.563 1 4-.658 1.678-1.329 3.354-2.098 4.984-1.595 3.564-2.714 7.3-3.902 11.016l-3-2c.446-6.69 3.073-12.028 6-18"/><path fill="#4e1d2b" d="m554 234 2 1-.992 1.61c-1.272 3.017-1.204 5.377-1.133 8.64l.055 3.266L554 251h1l1 11c-3-3-3-3-3.187-5.687L553 254h-3q.132-3.594.313-7.187l.068-2.042c.235-4.38 1.043-7.215 3.619-10.771"/></g>
  </defs>
  <g>
    <rect width="1200" height="750" fill="#000000"/>
    <use xlink:href="#art" filter="url(#bloom)"/>
    <use xlink:href="#art"/>
  </g>
</svg>