<?xml version="1.0" encoding="UTF-8"?>
<!--
  Placeholder dragon icon: my own stylized interpretation, white on
  black, in the spirit of Kali Linux.  The official Kali Linux dragon
  is OffSec's trademark; for the exact artwork, download the official
  SVG from https://www.kali.org/docs/policy/trademark/ and overwrite
  this file in place — the .desktop entry will pick it up.
-->
<svg xmlns="http://www.w3.org/2000/svg" viewBox="0 0 256 256" width="256" height="256">

  <rect width="256" height="256" fill="#000000"/>

  <g fill="#ffffff" fill-rule="evenodd">

    <!-- Top crown -->
    <polygon points="128,10 118,40 138,40"/>

    <!-- Left horn -->
    <path d="M 118,40 L 88,32 L 78,42 L 62,34 L 54,46 L 38,38 L 30,52
             L 18,46 L 14,64 L 26,68 L 18,78 L 32,82 L 26,92 L 42,94
             L 38,104 L 54,102 L 52,114 L 70,108 L 80,98 L 92,84
             L 102,70 L 114,58 Z"/>

    <!-- Right horn -->
    <path d="M 138,40 L 168,32 L 178,42 L 194,34 L 202,46 L 218,38 L 226,52
             L 238,46 L 242,64 L 230,68 L 238,78 L 224,82 L 230,92 L 214,94
             L 218,104 L 202,102 L 204,114 L 186,108 L 176,98 L 164,84
             L 154,70 L 142,58 Z"/>

    <!-- Inner ear left -->
    <path d="M 84,96 L 70,112 L 78,118 L 88,108 L 92,116 L 100,104
             L 96,92 Z"/>

    <!-- Inner ear right -->
    <path d="M 172,96 L 186,112 L 178,118 L 168,108 L 164,116 L 156,104
             L 160,92 Z"/>

    <!-- Outer mane left -->
    <path d="M 58,118 L 42,138 L 50,148 L 36,154 L 50,164 L 42,176 L 58,170
             L 56,184 L 70,170 L 66,154 L 74,140 L 70,128 Z"/>

    <!-- Outer mane right -->
    <path d="M 198,118 L 214,138 L 206,148 L 220,154 L 206,164 L 214,176
             L 198,170 L 200,184 L 186,170 L 190,154 L 182,140 L 186,128 Z"/>

    <!-- Forehead shield -->
    <path d="M 100,70 L 156,70 L 168,98 L 168,114 L 158,132 L 128,148
             L 98,132 L 88,114 L 88,98 Z"/>

    <!-- Third eye cutout -->
    <polygon fill="#000000" points="128,82 120,98 128,114 136,98"/>

    <!-- Eyes (cutouts) -->
    <path fill="#000000" d="M 100,110 L 118,118 L 118,124 L 112,124
                            L 100,118 Z"/>
    <path fill="#000000" d="M 156,110 L 138,118 L 138,124 L 144,124
                            L 156,118 Z"/>

    <!-- Cheek left -->
    <path d="M 80,118 L 68,134 L 76,146 L 90,140 L 96,128 L 90,120 Z"/>

    <!-- Cheek right -->
    <path d="M 176,118 L 188,134 L 180,146 L 166,140 L 160,128 L 166,120 Z"/>

    <!-- Upper jaw -->
    <path d="M 96,140 L 160,140 L 156,168 L 144,180 L 128,186 L 112,180
             L 100,168 Z"/>

    <!-- Mouth cutout -->
    <path fill="#000000" d="M 114,160 L 142,160 L 138,172 L 128,178
                            L 118,172 Z"/>

    <!-- Side fangs left -->
    <polygon points="76,146 64,186 80,176 86,154"/>
    <polygon points="92,166 86,196 100,184 102,168"/>

    <!-- Side fangs right -->
    <polygon points="180,146 192,186 176,176 170,154"/>
    <polygon points="164,166 170,196 156,184 154,168"/>

    <!-- Lower beard -->
    <path d="M 110,180 L 100,210 L 114,200 L 118,212 L 122,196 L 128,214
             L 134,196 L 138,212 L 142,200 L 156,210 L 146,180 L 138,184
             L 128,186 L 118,184 Z"/>

    <!-- Chin spike -->
    <polygon points="124,196 128,232 132,196"/>

  </g>
</svg>
