<svg xmlns="http://www.w3.org/2000/svg" viewBox="0 0 512 512" width="512" height="512" role="img" aria-label="Neon Tux">
<defs>
<radialGradient id="bg" cx="50%" cy="42%" r="62%"><stop offset="0%" stop-color="#230d13"/><stop offset="50%" stop-color="#0a0507"/><stop offset="100%" stop-color="#000"/></radialGradient>
<radialGradient id="aura" cx="50%" cy="44%" r="42%"><stop offset="0%" stop-color="#ff2247" stop-opacity="0.45"/><stop offset="45%" stop-color="#c0112a" stop-opacity="0.22"/><stop offset="100%" stop-color="#000" stop-opacity="0"/></radialGradient>
<radialGradient id="eye" cx="50%" cy="50%" r="50%"><stop offset="0%" stop-color="#fff" stop-opacity="0.95"/><stop offset="30%" stop-color="#ffd0d8" stop-opacity="0.8"/><stop offset="100%" stop-color="#ff2247" stop-opacity="0"/></radialGradient>
</defs>
<rect width="512" height="512" fill="url(#bg)"/>
<ellipse cx="256" cy="232" rx="210" ry="220" fill="url(#aura)"/>
<path fill="#050408" d="m213 86 2 2 1-1c10.98-1.27 21.674-.77 32.688-.125l5.263.277c12.771.709 12.771.709 15.049 1.848v5h2l1 5a126 126 0 0 0 7 3l1 3 3 1v-5l4-1c2.567 3.85 1.833 5.586 1 10h2c2 8.5 2 8.5 2 13h2l1 5h2c.942 7.535 1.053 14.885.938 22.46C298 154 298 154 299 158l-1 5 1 5 6 2 1 5 1 2-2 6 2 1-1 3c-.07 3.228-.084 6.458-.062 9.688l.027 5.261L306 206h5c2 2 2 2 2 6h2l2-8 1 3h2v-5l2-1c.897 6.28.75 11.72 0 18l1 4-1 3h3v5l3.813-.5C333 230 333 230 336 230l.438 3.188c.435 2.95.977 5.887 1.562 8.812h1v7l3-9c1 4 1 4 0 6-.571 6.626 1.002 10.18 4 16 2.27 9.19 2.27 9.19 1 13l2 2 1 2c3-5 3-5 5-10l2 2c-1.393 4.804-3.143 9.356-5 14 .426 3.41.426 3.41 1.313 7.063l.863 3.66L355 299l1 4 5-3c-2 6-2 6-4 9v5.938C357 321 357 321 355 325c2.285 5.713 3.71 6.355 9 9l-1 4h-2l1 5 2 1q.617 4.989 1 10l2-2c2 6 2 6 2 11h4l2 4 6 3c3 5 3 5 3 12l-1-4h-2l-2-5c-2.318-.426-4.657-.74-7-1-5.848-1.897-8.42-3.178-12-8.25-1.905-4.525-2.54-7.914-3-12.75-2.553-7.553-2.553-7.553-4-9-7.294-.235-7.294-.235-11 1l-2 3c-4.937 2.75-4.937 2.75-10 5l-3-1-5.125.25c-9.894-.421-15.911-5.54-22.875-12.25v-2a200 200 0 0 0-10 0c-2 2-2 2-3 8h-2l.035 4.844c.062 15.061.038 30.123-1.035 45.156l-1 1a594 594 0 0 0-.062 13.563l.013 3.888q.02 4.774.049 9.549h-2v-2l-3.684-.184-4.753-.253-4.747-.247C263 419 263 419 262 418c-7.928-1.446-15.974-1.11-24-1.062l-4.371.013q-5.315.02-10.629.049v2l-19 1c1-5 1-5 3-10h2v-3l3.644-.043c15.176-.424 29.534-2.92 44.356-5.957v-2l4.688-1.75C267 395 267 395 272 391h2v-2c-8.75 3.625-8.75 3.625-11 7a258 258 0 0 1-11 3l-6 2c-11.55 3.452-24.039 4.901-36 3-2.434-3.227-2.434-3.227-4-7-4-5-4-5-6.687-7.625C197 387 197 387 196 384l3.938-2.312C204 379 204 379 205 376h2v-11h-2l-3-5c-4.526-6.072-9.415-9.323-16-13l-3-2a205 205 0 0 0-8.5-1.5c-8.167-1.278-8.167-1.278-11.5-3.5v-3h-2c-2.94-4.9-3.531-7.471-4-13h-2c-8.663-21.225-3.37-37.363 5-58h2l1-9h-2l-1.187 3.688c-2.74 8.03-5.82 15.911-9.063 23.75-2.535 6.608-2.957 12.935-3.312 19.937l-.254 4.898L147 313h2c4.125 9.625 4.125 9.625 3 13l-8-2v2l7 1v1l-3.25.188C144 329 144 329 140 334c-3 5-3 5-5 10l-4 1c-3.701-7.616-3.345-14.74-3.187-23l.04-4.082c.036-3.306.09-6.612.147-9.918l-1 7h-2c-2.992-4.487-2.764-8.688-3-14l2-5c1.534 3.069.55 5.7 0 9h2l.375-3.312C127 298 127 298 129 295l.438-3.812C130 287 130 287 133 281l-9 3v-2l5-1 .375-4.687C130 271 130 271 132 266v-3h3l1-3 5-4c1.06-2.306 2.05-4.646 3-7a529 529 0 0 1 6-10c3-5 3-5 3.938-9.5 1.318-5.584 4.06-8.498 8.062-12.5-.312-4.687-.312-4.687-1-9l7-3v2c5.319-1.33 6.883-3.578 10-8l-1-6c-.23-10.542-.23-10.542 1-13l-2-6c-.84-11.956-1.26-26.567 5-37q.063-6 0-12l2-5h2l1-5 4-5 2-5c3.188-4.75 3.188-4.75 7-9l7-1c3.938-4.562 3.938-4.562 7-9m123 158 1 4Z"/><path fill="#7b3f48" d="m213 86 2 2 1-1c10.98-1.27 21.674-.77 32.688-.125l5.263.277c12.771.709 12.771.709 15.049 1.848v5h2l1 5a126 126 0 0 0 7 3l1 3 3 1v-5l4-1c2.567 3.85 1.833 5.586 1 10h2c2 8.5 2 8.5 2 13h2l1 5h2c.942 7.535 1.053 14.885.938 22.46C298 154 298 154 299 158l-1 5 1 5 6 2 1 5 1 2-2 6 2 1-1 3c-.07 3.228-.084 6.458-.062 9.688l.027 5.261L306 206h5c2 2 2 2 2 6h2l2-8 1 3h2v-5l2-1c.897 6.28.75 11.72 0 18l1 4-1 3h3v5l3.813-.5C333 230 333 230 336 230l.438 3.188c.435 2.95.977 5.887 1.562 8.812h1v7l3-9c1 4 1 4 0 6-.571 6.626 1.002 10.18 4 16 2.27 9.19 2.27 9.19 1 13l2 2 1 2c3-5 3-5 5-10l2 2c-1.393 4.804-3.143 9.356-5 14 .426 3.41.426 3.41 1.313 7.063l.863 3.66L355 299l1 4 5-3c-2 6-2 6-4 9v5.938C357 321 357 321 355 325c2.285 5.713 3.71 6.355 9 9l-1 4h-2l1 5 2 1q.617 4.989 1 10l2-2c2 6 2 6 2 11h4l2 4 6 3c3 5 3 5 3 12l-1-4h-2l-2-5c-2.318-.426-4.657-.74-7-1-5.848-1.897-8.42-3.178-12-8.25-1.905-4.525-2.54-7.914-3-12.75-2.553-7.553-2.553-7.553-4-9-7.294-.235-7.294-.235-11 1l-2 3c-9.302 5-9.302 5-12 5 2-4 2-4 7-7l2.688-2.437c4.118-3.187 8.5-4.638 13.312-6.563 1.82-5.46 1.142-11.41 1.125-17.125l.012-3.98c-.01-9.768-.01-9.768-1.137-10.895q-.556-5.495-1-11h-2l-1.625-5.812c-2.007-6.58-5.014-12.182-8.375-18.188l-1.375-4.375c-4.372-12.445-13.445-23.298-21.5-33.562C312 226 312 226 310 222l-2.125-2.062c-5.466-5.585-9.972-11.682-12.875-18.938l-2-1a424 424 0 0 1-2-10l-1-1c-1.126-11.481-1.287-22.965-1.43-34.494-.185-8.607-1.128-16.18-3.57-24.506l-1.375-5.312c-1.642-4.736-3.291-7.957-6.625-11.688l-5-1-1-3c-5.658-3.338-11.096-4.931-17.5-6.25l-4.844-1.016L245 101v-2c-3.668.425-7.334.866-11 1.313l-6.187.738c-7.924 1.294-12.53 2.922-18.813 7.949h-2l-2 4-4 3a147 147 0 0 0-3 10h-2v3h-2v2h-2l-.06 5.764c-.076 7.065-.165 14.13-.257 21.195a4121 4121 0 0 0-.105 9.17 4145 4145 0 0 1-.164 13.187l-.035 4.133c-.147 9.502-.404 15.082-6.379 22.551l-2.332 2.254c-6.345 6.53-11.331 14.39-16.668 21.746l-2.75 3.691C153.2 248.334 142.157 264.374 138 281h-2l-.25 3.375c-.861 5.312-2.67 9.67-4.75 14.625-1.93 5.362-3.397 10.327-4 16h-2c-2.992-4.487-2.764-8.688-3-14l2-5c1.534 3.069.55 5.7 0 9h2l.375-3.312C127 298 127 298 129 295l.438-3.812C130 287 130 287 133 281l-9 3v-2l5-1 .375-4.687C130 271 130 271 132 266v-3h3l1-3 5-4c1.06-2.306 2.05-4.646 3-7a529 529 0 0 1 6-10c3-5 3-5 3.938-9.5 1.318-5.584 4.06-8.498 8.062-12.5-.312-4.687-.312-4.687-1-9l7-3v2c5.319-1.33 6.883-3.578 10-8l-1-6c-.23-10.542-.23-10.542 1-13l-2-6c-.84-11.956-1.26-26.567 5-37q.063-6 0-12l2-5h2l1-5 4-5 2-5c3.188-4.75 3.188-4.75 7-9l7-1c3.938-4.562 3.938-4.562 7-9m123 158 1 4Z"/><path fill="#744954" d="M267 149v2h4c2.709 5.418 2.13 10.019 2 16h-2l-1 4a136 136 0 0 1-5 6l2.5 2.125C270 182 270 182 270 188c-3.471 4.34-6.408 7.096-10.75 10.438l-3.75 2.89L252 204l-4.75 3.688C244 210 244 210 242 210v2c-6.11 1.528-10.601 2.428-16.254-.937-3.05-2.247-5.982-4.472-8.746-7.063v-2l-5-2-1-3-5-2c-3-3-3-3-3.375-7 .375-4 .375-4 3.375-7v-3l-2-1v-2l-4-1a43.6 43.6 0 0 1 0-21c4-2 4-2 11-2 5 2 5 2 8 5v3h3c5 5.233 5 5.233 5 9 13.703-.854 13.703-.854 18.75-5.312q2.642-4.335 5.25-8.688c4.98-4.98 9.272-5.228 16-5"/><path fill="#72373f" d="m267 98 2 3 3 1c7.04 6.47 14.063 13.252 15 23h4v2h2c1.374 4.12 1.223 7.917 1.316 12.262l.127 5.576.12 5.85.13 5.884q.16 7.215.307 14.428l3-1h7l1 5 1 2-2 6 2 1-1 3c-.07 3.228-.084 6.458-.062 9.688l.027 5.261L306 206h5c2 2 2 2 2 6h2l2-8 1 3h2v-5l2-1c.897 6.28.75 11.72 0 18l1 4-1 3h3v5l3.813-.5C333 230 333 230 336 230l.438 3.188c.435 2.95.977 5.887 1.562 8.812h1v7l3-9c1 4 1 4 0 6-.571 6.626 1.002 10.18 4 16 2.27 9.19 2.27 9.19 1 13l2 2 1 2c3-5 3-5 5-10l2 2c-1.392 4.804-3.142 9.356-5 14 .426 3.41.426 3.41 1.313 7.063l.863 3.66L355 299l1 4 5-3c-2 6-2 6-4 9v5.938C357 321 357 321 355 325c2.285 5.713 3.71 6.355 9 9l-1 4h-2l1 5 2 1q.617 4.989 1 10l2-2c2 6 2 6 2 11h4l2 4 6 3c3 5 3 5 3 12l-1-4h-2l-2-5c-2.318-.426-4.657-.74-7-1-5.848-1.897-8.42-3.178-12-8.25-1.905-4.525-2.54-7.914-3-12.75-2.553-7.553-2.553-7.553-4-9-7.294-.235-7.294-.235-11 1l-2 3c-9.302 5-9.302 5-12 5 2-4 2-4 7-7l2.688-2.437c4.118-3.187 8.5-4.638 13.312-6.563 1.82-5.46 1.142-11.41 1.125-17.125l.012-3.98c-.01-9.768-.01-9.768-1.137-10.895q-.556-5.495-1-11h-2l-1.625-5.812c-2.007-6.58-5.014-12.182-8.375-18.188l-1.375-4.375c-4.372-12.445-13.445-23.298-21.5-33.562C312 226 312 226 310 222l-2.125-2.062c-5.466-5.585-9.972-11.682-12.875-18.938l-2-1a424 424 0 0 1-2-10l-1-1c-1.126-11.481-1.287-22.965-1.43-34.494-.185-8.608-1.132-16.18-3.57-24.506l-1.312-5.25C280.074 114.578 272.266 107.612 264 101c-8.44-3.256-16.003-4.14-25-4.125l-4.625-.008c-5.336.162-10.202.84-15.375 2.133v2h-3v2l-3.5 1.063c-9.493 4.087-13.104 9.901-17.5 18.937l-4 1c1.962-8.56 5.867-14.84 13-20l4-2 3-3c17.228-8.746 38.32-8.636 56-1m69 146 1 4Z"/><path fill="#522a33" d="M161 257h2l-1 9h-2l-1 5a285 285 0 0 1-2.937 7.188C150.104 292.962 148.83 306.153 155 321v3h2c1.46 4.318 2.894 8.577 4 13h2l1 3c5.2 1.502 10.22 2.847 15.625 3.313 7.372 1.501 13.417 6.193 18.375 11.687l3.813 3.625C205 362 205 362 205 365h2v11h-2l-1 4c-4.644 3.483-6.365 3.447-12 3l-3-2v-2h-2v-2l4 2c2.993.394 5.993.735 9 1l1-3h2c.125-10.625.125-10.625-1-14h-2l-2.625-3.187C189.334 350.729 179.602 347.957 168 346l-2-1v2l-3-1v-4h-2l-2.5-4c-3.5-4-3.5-4-8.875-4.5L145 334l-1 4-3 5h-2v3h-2l-1 6c-1 2-1 2-6 4l-1 3h-6v2h-18v5l-2 2a201 201 0 0 0-.125 10.625l.055 5.852L103 389h-2l-1 8h-2l1 11-6 1v-14l-3-1h2c1.154-5.555 2-10.69 2-16.375 0-7.831.464-15.553 4-22.625 4.313-2.497 8.078-4.019 12.938-5.187L115 348c.938-4.562.938-4.562 1-9l2-2 2 1h5l1-3c2 3 2 3 5 9l4-1c1.08-2.297 2.07-4.638 3-7 4.793-7.698 4.793-7.698 10-9l-4-1v-2l8 1-1.5-4.312C149 316 149 316 149 313h-2c-.054-2.854-.093-5.708-.125-8.562l-.07-4.817c.181-4.29.826-7.58 2.195-11.621l1.25-4c2.365-6.756 5.028-13.38 7.75-20l1.563-3.96z"/><path fill="#753942" d="m213 86 2 2 1-1c10.98-1.27 21.674-.77 32.688-.125l5.263.277c12.771.709 12.771.709 15.049 1.848v5h2l1 5a126 126 0 0 0 7 3l1 3 3 1v-5l4-1c2.567 3.85 1.833 5.586 1 10h2c2 8.5 2 8.5 2 13h2l1 5h2c.942 7.535 1.053 14.885.938 22.46C298 154 298 154 299 158l-1 5 1 5 5 1v1l-9 1c-1.76-3.52-1.235-7.502-1.316-11.383l-.127-5.722-.12-6.02-.13-6.043q-.16-7.416-.307-14.832h-2v-2h-4l-1.125-3.5c-3.132-7.517-7.62-12.436-13.875-17.5v-2l-4-1-3-3c-18.106-6.153-36.574-6.169-54 2h-2l-2 4c-5 3-5 3-9 5l-2 5-4 5h-4v4l-3 2c-.512 4.133-.512 4.133-.687 9.125l-.2 5.008L184 143l-4 1v19h2c.082 4.896.14 9.791.188 14.688l.076 4.15c.063 8.876-.676 16.643-3.264 25.162-4.323 2.322-7.066 2-12 2-2 3-2 3-2.187 7.063-1.048 6.364-3.817 9.959-7.813 14.937h-2l-1 4c-1.258-5.032-.383-6.464 2-11l3.25-3.375C162 217 162 217 161.875 212.063L161 208l7-3v2c5.319-1.33 6.883-3.578 10-8l-1-6c-.23-10.542-.23-10.542 1-13l-2-6c-.84-11.956-1.26-26.567 5-37q.063-6 0-12l2-5h2l1-5 4-5 2-5c3.188-4.75 3.188-4.75 7-9l7-1c3.938-4.562 3.938-4.562 7-9"/><path fill="#5f3139" d="M321 201h1c.897 6.28.75 11.72 0 18l1 4-1 3h3v5l3.813-.5C333 230 333 230 336 230l.438 3.188c.435 2.95.977 5.887 1.562 8.812h1v7l3-9c1 4 1 4 0 6-.571 6.626 1.002 10.18 4 16 2.27 9.19 2.27 9.19 1 13l2 2 1 2c3-5 3-5 5-10l2 2c-1.392 4.804-3.142 9.356-5 14 .426 3.41.426 3.41 1.313 7.063l.863 3.66L355 299l1 4 5-3c-2 6-2 6-4 9v5.938C357 321 357 321 355 325c2.285 5.713 3.71 6.355 9 9l-1 4h-2l1 5 2 1q.617 4.989 1 10l2-2c2 6 2 6 2 11h4l2 4 6 3c3 5 3 5 3 12l-1-4h-2l-2-5c-2.318-.426-4.657-.74-7-1-5.848-1.897-8.42-3.178-12-8.25-1.905-4.525-2.54-7.914-3-12.75-2.553-7.553-2.553-7.553-4-9-7.294-.235-7.294-.235-11 1l-2 3c-9.302 5-9.302 5-12 5 2-4 2-4 7-7l2.688-2.437c4.118-3.187 8.5-4.638 13.312-6.563 1.82-5.46 1.142-11.41 1.125-17.125l.012-3.98c-.01-9.768-.01-9.768-1.137-10.895q-.556-5.495-1-11h-2l-1.625-5.812c-2-6.573-5.005-12.197-8.375-18.188l-1-5c3.937 1.968 5.168 7.19 7 11l-1.437-4.062C341 265 341 265 340.563 261l-.563-3-4-1a202 202 0 0 1-1-7l-3-1-2-5a467 467 0 0 0-8-10c-3.408-4.544-4.451-8.579-6-14l-1-1c.453-5.056 1.165-9.99 2-15l1 3h2v-5zm15 43 1 4Z"/><path fill="#b06673" d="M267 152c2 2 2 2 2.313 8.063-.596 13.22-.596 13.22-4.313 16.937l2.5 2.125C270 182 270 182 270 188l-2 3-6-1v-2h2v-2h2l1-3-6.25-.875c-6.601-.941-13.177-2.003-19.75-3.125v-4h-2l-1 3v-5c-3.937.813-3.937.813-8 2l-1 3a221 221 0 0 1-7 2l-1 2q-6.5.125-13 0v-2h2l-1-4-4-2c-3.535-5.302-3.265-10.819-3-17l2-3c5.188-.088 7.57.678 11.75 3.813 7.246 7.106 7.246 7.106 7.5 11.937L223 174l2.938-2.437c4.709-2.97 7.516-3.64 13.062-3.563 4.063 1.938 4.063 1.938 7 4l.563-4c2.993-10.41 9.652-16 20.437-16"/><path fill="#1a191c" d="M267 196c5 1 5 1 8 5 1.81 4.291 3 7.324 3 12h2c3 7.625 3 7.625 3 11h2l1 7h2l1 7h2c3 6.115 3 6.115 3 10h2v4h2c2.476 8.334 4.453 16.44 6 25l1.5 4.313c1.977 6.178 2.635 12.259 3.5 18.687l1 1c.073 3.187.084 6.375.063 9.563l-.028 5.316L310 320l4.313-2.875L322 312c1.123-11.872.826-23.033-4-34l-1-1v-5h-2l-3-6-2.187-3.25C308 260 308 260 308 258h-2v-5h2c3.95 5.017 6.974 10.391 10 16l3.188 5.563c4.502 8.704 5.048 15.663 4.937 25.437l-.055 6.25L326 311h3v2l6 1v2l-4.5-.187c-6.69.228-11.18 1.27-16.375 5.562C312 324 312 324 310 329l5-3c8.7-1.74 19.197-2.92 27 2a282 282 0 0 1 5 5l4 1 1-2-1 4-4 2-3-1v-2c-8.531-5.734-14.755-6.666-25-6-3.358.913-6.703 1.885-10 3l-2-1c-.053-4-.042-8 0-12a533 533 0 0 0-.875-12.312l-.492-6.176c-.516-4.496-1.252-8.241-2.633-12.512a956 956 0 0 1-2-7.875l-1.066-4.258a210 210 0 0 1-1.872-8.617c-1.693-6.775-4.177-13.422-8.062-19.25l-2-6a330 330 0 0 0-3.125-6.687C282 229 282 229 282 226h-2l-1-7h-2l-1.187-6.187c-1.214-5.368-2.367-8.328-6.813-11.813v-2h-3z"/><path fill="#4d292f" d="m213 86 2 2 1-1c11.026-1.286 21.754-.736 32.813-.062l5.314.302q6.436.37 12.873.76v1c-5.574.929-10.23 1.001-15.852.809-.95-.03-.95-.03-5.765-.174q-6.02-.197-12.04-.407l-5.757-.17-5.28-.177C218 89 218 89 214 91v2a282 282 0 0 1-5 5l-3 4-4 1-1 2h-2v3l-3 3h-2v6l-2 2h-4v4l-3 2c-.512 4.133-.512 4.133-.687 9.125l-.2 5.008L184 143l-4 1v19h2c.082 4.896.14 9.791.188 14.688l.076 4.15c.063 8.876-.676 16.643-3.264 25.162-4.323 2.322-7.066 2-12 2-2 3-2 3-2.187 7.063-1.048 6.364-3.817 9.959-7.813 14.937h-2l-1 4c-1.258-5.032-.383-6.464 2-11l3.25-3.375C162 217 162 217 161.875 212.063L161 208l7-3v2c5.319-1.33 6.883-3.578 10-8l-1-6c-.23-10.542-.23-10.542 1-13l-2-6c-.84-11.956-1.26-26.567 5-37q.063-6 0-12l2-5h2l1-5 4-5 2-5c3.188-4.75 3.188-4.75 7-9l7-1c3.938-4.562 3.938-4.562 7-9"/><path fill="#3c353a" d="M161 257h2l-1 9h-2l-1 5a285 285 0 0 1-2.937 7.188C150.104 292.962 148.83 306.153 155 321v3h2c1.46 4.318 2.894 8.577 4 13h2l1 3c5.2 1.502 10.22 2.847 15.625 3.313 7.372 1.501 13.417 6.193 18.375 11.687l3.813 3.625C205 362 205 362 205 365h2v11h-2l-1 4c-4.644 3.483-6.365 3.447-12 3l-3-2v-2h-2v-2l4 2c2.993.394 5.993.735 9 1l1-3h2c.125-10.625.125-10.625-1-14h-2l-2.625-3.187C189.334 350.729 179.602 347.957 168 346l-2-1v2l-3-1v-4h-2l-2.5-4c-3.5-4-3.5-4-8.875-4.5L145 334l-1 4-3 5h-2v3h-2l-1 6-1 2-4-1 2.938-4.312C137 344 137 344 138 341h2v-3h2l1-6c3.563-1.375 3.563-1.375 7-2h-7l1-2 4-1-4-1v-2l8 1-1.5-4.312C149 316 149 316 149 313h-2c-.054-2.854-.093-5.708-.125-8.562l-.07-4.817c.181-4.29.826-7.58 2.195-11.621l1.25-4c2.365-6.756 5.028-13.38 7.75-20l1.563-3.96z"/><path fill="#d08897" d="m267 98 2 3 3 1c7.481 6.875 13.814 14.29 17 24v4h2c1.17 5.854 1.219 11.327 1.316 17.3l.063 3.611q.097 5.7.183 11.401l.131 7.737q.16 9.475.307 18.951l-2-1q-.125-6 0-12h-2l-.044-2.93c-.075-4.44-.172-8.88-.269-13.32l-.068-4.61c-.209-8.817-1.105-16.616-3.619-25.14l-1.312-5.25C280.074 114.578 272.266 107.612 264 101c-8.44-3.256-16.003-4.14-25-4.125l-4.625-.008c-5.336.162-10.202.84-15.375 2.133v2h-3v2l-3.5 1.063c-9.493 4.087-13.104 9.901-17.5 18.937l-4 1c1.962-8.56 5.867-14.84 13-20l4-2 3-3c17.228-8.746 38.32-8.636 56-1"/><path fill="#542c34" d="m360 300 1 2-1.937 2.875c-2.75 5.499-2.194 10.048-2.063 16.125l-2 4c2.285 5.713 3.71 6.355 9 9l-1 4h-2l1 5 2 1q.617 4.989 1 10l2-2c2 6 2 6 2 11h4l2 4 6 3c3 5 3 5 3 12l-1-4h-2l-2-5c-2.318-.426-4.657-.74-7-1-5.848-1.897-8.42-3.178-12-8.25-1.905-4.525-2.54-7.914-3-12.75-2.553-7.553-2.553-7.553-4-9-7.294-.235-7.294-.235-11 1l-2 3c-9.302 5-9.302 5-12 5 2-4 2-4 7-7l2.688-2.437c4.118-3.186 8.5-4.638 13.312-6.563 2.296-6.889 1.366-15.038 1.523-22.246C353 307 353 307 356 303z"/><path fill="#271012" d="m249.23 182.926 4.957.386 4.981.364L263 184c-1 5-1 5-4.457 7.352l-4.356 2.273c-4.343 2.295-8.252 4.423-12.187 7.375-4 1-4 1-11 1l-5-3-6-3.5c-10.966-6.397-10.966-6.397-12-9.5q5.719-.039 11.437-.063l6.434-.035C231 186 231 186 232 187c6.965-.357 11.135-3.967 17.23-4.074"/><path fill="#330e15" d="m264.75 143.75 6.25.25-2 1 4 5c2.244 4.487 2.299 7.091 2.313 12.063l.05 4.285C275 170 275 170 272 173a129 129 0 0 0-2 7l-1 2-2-4-3-1 2.938-3.312C270 170 270 170 271 167h2c-.875-11.5-.875-11.5-2-16h-4v-2c-6.95.6-11.897 1.897-17 7l-1.937 3.438C246 163 246 163 242 167c-3.566.785-3.566.785-7.562 1.063l-4.004.347L227 168c-3-5-3-5-5-9h-3l-3-5c-5.762-2.305-9.964-2.509-16-1q-.04 4.125-.062 8.25l-.036 4.64C200 170 200 170 201 174l3 1v2l3 1c-1 4-1 4-3 6a150 150 0 0 0-1 8h-1l-.312-6.312C201 179 201 179 198 176c-2.997-7.57-2.607-15.142-.937-23 1.937-4 1.937-4 5.062-6.125 6.253-1.412 11.673-.115 17.875 1.125 2.927 4.39 3.974 8.871 5 14h2l1 4 7-1v-1l8-1 1-5 4-1v-6l6-3c4-4 4-4 10.75-4.25"/><path fill="#582934" d="m257 98 3.875 1c6.098 2.957 10.25 7.307 15.125 12l-4 1-1-3c-5.658-3.338-11.096-4.931-17.5-6.25l-4.844-1.016L245 101v-2c-3.668.425-7.334.866-11 1.313l-6.187.738c-7.924 1.294-12.53 2.922-18.813 7.949h-2l-2 4-4 3a147 147 0 0 0-3 10h-2v3h-2v2h-2l-.06 5.764c-.076 7.065-.165 14.13-.257 21.195a4121 4121 0 0 0-.105 9.17 4145 4145 0 0 1-.164 13.187l-.035 4.133c-.235 15.152-.235 15.152-5.004 20.488L184 207l2-10h2l.028-5.21c.04-6.428.106-12.856.18-19.283q.042-4.16.063-8.319c.022-4.004.068-8.008.12-12.012l.003-3.708c.225-13.432 3.97-27.844 12.97-38.183 3.707-3.56 6.74-6.054 11.761-7.347L216 103v-2h3v-2c10.694-5.347 26.81-4.43 38-1"/><path fill="#18181b" d="M166 345h2l1 4 2 1 1 5h2a295 295 0 0 1 4 7c4.61 6.805 4.61 6.805 7 8v3h2v3l2 1h-2v2h2l3 3 6 1-2 1 4 5v2l4 2c3 4 3 4 6 10 13.06 2.023 32.574 1.617 44-6l4.563-.937C263 395 263 395 265 392c6-3 6-3 9-3v2c-5.012 3.99-10.387 8-17 8v2c-16.382 4.234-31.022 6.284-48 6v3h-2l-1 5-2 3-1 5-2 2h-3c1-5 1-5 4-8l1-4h2c.178-6.398-.179-11.853-2-18h-2l-4-5-4-2-1-3-2.937-2.312C186 380 186 380 184 374h-2v-2h-2a524 524 0 0 1-4-7l-2-1-1-3-2-1a220 220 0 0 1-3-7l-3-6z"/><path fill="#333334" d="M306 253h2c3.95 5.017 6.974 10.391 10 16l3.188 5.563c4.502 8.704 5.048 15.663 4.937 25.437l-.055 6.25L326 311h3v2l6 1v2l-4.5-.187c-6.69.228-11.18 1.27-16.375 5.562C312 324 312 324 310 329l5-3c8.7-1.74 19.197-2.92 27 2a282 282 0 0 1 5 5l4 1 1-2-1 4-4 2-3-1v-2c-8.531-5.734-14.755-6.666-25-6-3.358.913-6.703 1.885-10 3l-2-1c.733-5.952 1.539-8.531 5.813-12.875C317 315 317 315 322 312c1.572-11.711.762-23.178-4-34l-1-1v-5h-2l-3-6-2.187-3.25C308 260 308 260 308 258h-2z"/><path fill="#232125" d="M198 200h7v4l-5 3c-1.5 3.25-1.5 3.25-3 8q-1.24 3.879-2.5 7.75l-1.219 3.86C192 230 192 230 189 234l-1 4h-2l-1 6h-2l-.25 2.875c-.92 5.061-2.761 9.387-4.75 14.125-3.676 9.557-6.46 18.676-8.125 28.813-1.812 10.936-1.812 10.936-2.875 15.187-.227 3.414-.41 6.832-.562 10.25l-.254 5.516L166 325h-2c-.324-20.921.172-42.597 9-62l1.438-3.937C176 255 176 255 177.813 251.438c3.82-7.752 6.842-15.85 9.875-23.938a159 159 0 0 1 2.875-7.125c2.178-5.114 3.523-9.888 4.437-15.375h2z"/><path fill="#f6eded" d="M267 152c2 2 2 2 2.375 8.25-.48 8.638-.48 8.638-4.375 12.75-4.155 3.116-7.006 3.918-12 5v-2h-3c-2.397-4.793-1.956-6.82-1-12 3.61-9.024 8.661-12 18-12"/><path fill="#bc737f" d="M189 126h2l-.482 3.17c-.648 6.041-.731 12.053-.8 18.123l-.055 3.83c-.078 5.387-.147 10.773-.215 16.159q-.08 5.911-.167 11.823l-.04 3.69c-.073 4.894-.279 9.394-1.241 14.205h-2v5c-2.56 5.121-5.109 8.997-8.562 13.5-8.367 11.028-16.367 22.135-23.625 33.93L152 252h-2c1-5 1-5 4-11h2l2-5 1-2h2l1-5h2l2-4c2-3.25 2-3.25 4-6h2l1-5 4-4 1-2h2l1-5 2.027-5.113c3.51-11.25 2.54-23.4 2.536-35.074.003-3.662.013-7.323.04-10.985.025-3.314.027-6.628.028-9.942.361-5.759 1.473-10.457 3.369-15.886"/><path fill="#27262a" d="M292.688 334.375c5.843.847 8.16 3.542 12.312 7.625 8.004 6.403 12.942 7.335 23 7v2l6-2c-4.335 4.335-6.834 3.995-13 4.188-6-.188-6-.188-10-2.188v-2l-5-2c-3.312-2.5-3.312-2.5-6-5v-2c-5-2-5-2-10-1-2.27 5.674-2.488 10.08-2.816 16.18-.125 2.208-.25 4.416-.377 6.691l-.37 7.004q-.373 6.84-.753 13.68l-.327 6.14c-.28 4.166-.715 8.186-1.357 12.305-.478 8.584-.392 15.943 3 24l-4-1v-5h-2q-.04-5.97-.062-11.937l-.036-6.715C281 395 281 395 282 394c.232-3.675.397-7.355.535-11.035l.264-6.826.264-7.202q.136-3.606.275-7.212.337-8.863.662-17.725h2v-6c3-3 3-3 6.688-3.625"/><path fill="#402023" d="m213 86 2 2 1-1c11.026-1.286 21.754-.736 32.813-.062l5.314.302q6.436.37 12.873.76v1c-5.574.929-10.23 1.001-15.852.809-.95-.03-.95-.03-5.765-.174q-6.02-.197-12.04-.407l-5.757-.17-5.28-.177C218 89 218 89 214 91v2a282 282 0 0 1-5 5l-3 4-4 1-1 2h-2v3l-3 3h-2v6l-2 2h-4v4l-5 3-2-1 2-5h2l1-5 4-5 2-5c3.188-4.75 3.188-4.75 7-9l7-1c3.938-4.562 3.938-4.562 7-9"/><path fill="#502128" d="m238 173 1 2h2v4h7a265 265 0 0 1 9.938 2l5.152 1.125L267 183v5l-1-2h-2l-1 2v-4q-4.406-.118-8.812-.187l-4.957-.106C245 184 245 184 242 187c-3.99.443-7.992.785-12 1v-1l-4.305.07-5.57.055-5.555.07C210 187 210 187 208 185c3.627-3.627 9.553-2.423 14.473-2.559 1.164-.145 2.328-.29 3.527-.441l1-3h2l1-5c2-1 2-1 8-1"/><path fill="#3a141c" d="M276 112c8.979 6.734 11.253 19.397 13 30 .351 5.601.462 11.202.563 16.813.605 29.355.605 29.355 2.437 31.187q.556 4.494 1 9c-3-1-3-1-6-6h-1l-.152-4.466q-.285-8.18-.593-16.36-.13-3.543-.25-7.088c-.115-3.391-.243-6.782-.372-10.172l-.222-6.189C284 144 284 144 282 142v-10a192 192 0 0 0-2-7v-6h-2v-2h-2z"/><path fill="#f8efef" d="M204 154c5.162-.088 7.6.712 11.813 3.75 3.984 4.063 6.123 6.784 6.375 12.563L222 174c-5.697 2.06-10.058 2.223-16 1-4.362-5.816-4.303-10.922-4-18z"/><path fill="#bc6f7f" d="M293 189c2 3 2 3 2 7h2l1.125 3.688c2.034 4.679 3.947 6.22 7.875 9.312l2 5 3 2a691 691 0 0 1 4 7 397 397 0 0 0 6 8q3.526 4.73 7.047 9.46C330 243 330 243 332 245l1 4 2 1 .375 3.5.625 3.5 4 1c1.52 3.02 1.52 3.02 2.813 6.813l1.332 3.769C345 272 345 272 344 276l-1.941-3.77c-7.844-15.09-16.407-28.755-26.934-42.168C312 226 312 226 310 222l-2.125-2.062C299.149 211.022 293 201.715 293 189"/><path fill="#935e69" d="m151 329-1 2c-2.322.407-4.657.744-7 1l-1 6h-2v3h-2l-1 4c-3.642 6.243-6.386 10.028-13 13-4.927.491-9.75.5-14.7.531C105 359 105 359 101 363c-.75 4.75-.75 4.75-1 9h-1a192 192 0 0 1 0-12l3-3h3v-2h14l.813-4.125C121 346 121 346 124 340h3v4l3 2v2c4.129-3.682 5.946-6.909 8-12 3.87-6.53 5.155-7 13-7"/><path fill="#5c383d" d="m141 256 1 4-1.875 2.625c-2.784 4.422-2.846 8.224-3.125 13.375l2 1-1 4h-2l-.25 3.375c-.861 5.312-2.67 9.67-4.75 14.625-1.93 5.362-3.397 10.327-4 16h-2c-2.992-4.487-2.764-8.688-3-14l2-5c1.534 3.069.55 5.7 0 9h2l.375-3.312C127 298 127 298 129 295l.438-3.812C130 287 130 287 133 281l-9 3v-2l5-1 .375-4.687C130 271 130 271 132 266v-3h3l1-3z"/><path fill="#442127" d="M287 100c2.567 3.85 1.833 5.586 1 10h2c2 8.5 2 8.5 2 13h2l1 5h2c.942 7.535 1.053 14.885.938 22.46C298 154 298 154 299 158l-1 5 1 5 5 1v1l-9 1c-1.76-3.52-1.235-7.502-1.316-11.383l-.127-5.722-.12-6.02-.13-6.043q-.16-7.416-.307-14.832h-2v-2h-3v-8h-2c-1.843-5.684-3-9.974-3-16 2-1 2-1 4-1"/><path fill="#ba7683" d="m270 105 4 2 4 1c5.883 6.457 11 12.939 11 22h2c1.17 5.854 1.219 11.327 1.316 17.3l.063 3.611q.097 5.7.183 11.401l.131 7.737q.16 9.475.307 18.951l-2-1q-.125-6 0-12h-2l-.044-2.93c-.075-4.44-.172-8.88-.269-13.32l-.068-4.61c-.209-8.817-1.105-16.616-3.619-25.14l-1.312-5.25c-2.802-7.887-8.238-13.522-13.688-19.75"/><path fill="#7a3b44" d="M267 149v2h4c2.709 5.418 2.13 10.019 2 16h-2l-1 4-3 2 1-6c.08-4.333.087-8.668 0-13l-1-1c-7.88 0-9.347.903-15 6-2.951 4.35-4.315 7.944-6 13-4-1-4-1-7-3-6.642.19-8.642.713-14 5h-2l-.312-4.125C222 165 222 165 219 159h3c5 5.233 5 5.233 5 9 13.703-.854 13.703-.854 18.75-5.312q2.642-4.335 5.25-8.688c4.98-4.98 9.272-5.228 16-5"/><path fill="#97616d" d="M355 338c3.7 2.69 4.85 4.218 5.715 8.742l.223 4.133c.527 5.449.884 7.844 3.875 12.563C368 366 368 366 373 367v2l4 1c5 3 5 3 7 5v7l-1-4h-2l-2-5c-2.318-.426-4.657-.74-7-1-5.848-1.897-8.42-3.178-12-8.25-1.905-4.525-2.54-7.914-3-12.75-2.553-7.553-2.553-7.553-4-9-7.294-.235-7.294-.235-11 1l-2 3c-9.302 5-9.302 5-12 5 2-4 2-4 7-7l3.125-2.625c5.257-4.343 10.22-3.819 16.875-3.375"/><path fill="#2c2b2f" d="M161 257h2l-1 9h-2l-1 5a285 285 0 0 1-2.937 7.188C150.104 292.962 148.83 306.153 155 321v3h2l2 9-4-2v-3l-3.25-.437C148 327 148 327 144 326v-2l8 1-1.5-4.312C149 316 149 316 149 313h-2c-.054-2.854-.093-5.708-.125-8.562l-.07-4.817c.181-4.29.826-7.58 2.195-11.621l1.25-4c2.365-6.756 5.028-13.38 7.75-20l1.563-3.96z"/><path fill="#9d4b59" d="M292 157h1l2 31 3-1c3.256 6.621 4.893 12.712 6 20h8l1 5h2l.313 3.063C316 219 316 219 317.625 222.75 319 226 319 226 318 229c-6.875-9.625-6.875-9.625-8-13l-3-2-1-5-4-2c-4-5-4-5-5-11h-2c-4.35-12.182-3.13-26.253-3-39m-2 19h1l.438 5.938C292 188 292 188 293 189q.556 5.495 1 11c-2.3-3.45-2.474-5.941-3-10l-1-1a676 676 0 0 1 0-13"/><path fill="#461a24" d="m200 114 2 1-3 6-1 5h-2v3h-2v2h-2l-.06 5.764c-.076 7.065-.165 14.13-.257 21.195a4121 4121 0 0 0-.105 9.17 4145 4145 0 0 1-.164 13.187l-.035 4.133c-.235 15.152-.235 15.152-5.004 20.488L184 207l2-10h2l.028-5.21c.04-6.428.106-12.856.18-19.283q.042-4.16.063-8.319c.022-4.004.068-8.008.12-12.012l.003-3.708c.207-12.361 3.573-22.672 9.606-33.468z"/><path fill="#2b1519" d="m205 188 1 2 5 2a227 227 0 0 1 6.563 3.938l3.378 2.09c2.42 1.56 4.756 3.245 7.059 4.972 3.453.512 3.453.512 7.25.688L242 204v-2c3.64-2.048 7.311-4.04 11-6l4.563-2.875C261 191 261 191 263 191v2c-2.959 2.412-5.994 4.73-9.062 7l-5.098 3.813c-4.147 2.73-7.036 4.248-11.84 5.187v2h-5l-2-4-4-2c-7.152-4.448-14.27-8.928-21-14z"/><path fill="#222225" d="M267 196c5 1 5 1 8 5 1.81 4.291 3 7.324 3 12h2c3 7.625 3 7.625 3 11h2l1 7h2l1 7h2c4.125 10.5 4.125 10.5 3 15-4-5-4-5-6-11a330 330 0 0 0-3.125-6.687C282 229 282 229 282 226h-2l-1-7h-2l-1.187-6.187c-1.214-5.368-2.367-8.328-6.813-11.813v-2h-3z"/>
<circle cx="222" cy="168" r="34" fill="url(#eye)"/>
<circle cx="290" cy="168" r="34" fill="url(#eye)"/>
</svg>