<svg xmlns="http://www.w3.org/2000/svg" xmlns:xlink="http://www.w3.org/1999/xlink" viewBox="372 49 820 820" width="820" height="820" role="img" aria-label="Neon Tux">
<defs>
<radialGradient id="bg" cx="50%" cy="40%" r="60%"><stop offset="0%" stop-color="#1c0b10"/><stop offset="52%" stop-color="#080406"/><stop offset="100%" stop-color="#000"/></radialGradient>
<filter id="glow" x="-20%" y="-20%" width="140%" height="140%" color-interpolation-filters="sRGB">
  <feGaussianBlur stdDeviation="4" result="b"/>
  <feComponentTransfer in="b" result="bb"><feFuncR type="linear" slope="1.35"/><feFuncG type="linear" slope="1.3"/><feFuncB type="linear" slope="1.3"/></feComponentTransfer>
  <feMerge><feMergeNode in="bb"/><feMergeNode in="bb"/></feMerge>
</filter>
<g id="art"><path fill="#323132" d="M735.965 188.754c9.365.382 18.72.162 28.09-.012 7.022.26 13.145 1.566 19.945 3.258 4.813-.313 4.813-.313 8-1l-1 2 7 1c3.267 3.267 3.17 7.569 4 12l1 2c2.656.409 5.325.745 8 1l1 5a157 157 0 0 0 7 6l2 3a959 959 0 0 0 7 8l.375-4.438L829 222l2-1a130 130 0 0 1 3 18l2-4 2 10h3c2.56 5.971 3.516 9.712 4 16h3c.075 5.55-.084 10.505-1 16l-.5 6.25C846 289 846 289 845 291l1 3.562c1.399 7.607.617 14.764 0 22.438-2.074 28.851-2.074 28.851 0 33h-2l1 6 2 1 1 5c1.813 4.812 1.813 4.812 4 9h4c2 3 2 3 3 6l2-1c2 5 2 5 3 12a181 181 0 0 0 6 8v2h2v2h2l1-8h2v-2h2v-5l1 2h2c1.287 6.864 2.171 13.598 2.563 20.562C885 415 885 415 886 418l4 1v-5h1v5l5 1 .313 4.375L897 429l3 2a499 499 0 0 1 3 8l2 1v6l1 1 2-7h1l1 7 1 4-1 4h2l1 4 2 1 1-3c3 4 3 4 3.438 9.312.55 5.563 1.207 8.308 4.562 12.688l5 2c-1 5-1 5-2 8l4 6a261 261 0 0 1 2 9l2 3 1 7h2c-.844 3.376-1.9 6.698-3 10l4 1v25l1-15h1c1.241 8.687 1.793 15.622-1 24-.33 7.009.04 13.246 2 20l2 1-4 9h3l3 3 1-2 2 1c3.218 10.13 3.218 10.13 2 15l2 7c-.375 4.937-.375 4.937-1 9l4 2 1 1 2-5h2l2 13 4-1-1 3 5 1a524 524 0 0 1 7 4l4 1v3l4-1v2l5-1v2h-3l1.125 5.562C990 658 990 658 988 665l-6 2-2 1c2-6 2-6 3-7 0-5 0-5-4-10l-2-1v-2l-4-1-6-2v-2l-5-1-5-3-4-1a150 150 0 0 1-4-7l-2-1c-2.65-6.625-2.527-12.908-3-20l-2-5v-5h-2v-2c-7.525-2.508-14.087-1.457-21 2h-2v3h-3v2l-6 1v2l-5 2-5 3c-4.863.293-4.863.293-10.312.187l-5.489-.082L878 613v-2l3.621-.227c12.03-.995 18.698-3.092 27.379-11.773h2v-2c3.267-2.527 6.064-4.688 10-6l1-2h3v-4l-4-1-5-5c-10.443-5.08-23.436-6.823-34.71-3.691C877 577 877 577 871 580h-8v-13l3-1 3.5-4c3.5-4 3.5-4 6.5-5v-3h4v-2l6-1c2.744-6.861 2.25-13.476 2.188-20.75l-.002-4.387C888.14 515.14 888.14 515.14 887 514l-.187-4.25c-1.231-8.711-4.993-15.838-9.625-23.25C875 483 875 483 874 478h-2c-5-11.071-5-11.071-5-15h3l3 6 5 4c2.188 4 2.188 4 4 8 2 4 2 4 4 5v4h2c1.191 4.766 2.364 9.533 3.5 14.312C893 510 893 510 895 513c.144 4.56.168 9.125.125 13.687l-.055 7.512L895 540h-2v8h5v2h8l4 2v6l-3-1v-2c-10.914-.485-19.702 1.567-30 5v3l-3 2-3 6h-2v4l4.55-2.48c7.643-2.986 13.461-3.017 21.638-2.833l7.855.137L909 570l1 3 3.625.312c5.416.852 7.48 2.946 11.375 6.688l3 2v2l6 1v-5h3c-.11-7.146-.24-14.292-.375-21.438l-.094-6.189-.117-5.87-.095-5.442L936 537l-2-1q-.562-5.495-1-11l-1-1v-7l-3-1a674 674 0 0 1-3-13 498 498 0 0 0-4-10c-1.357-4.683-2-8.098-2-13h-2c-10-15.625-10-15.625-10-20l-4-2c-2-5-2-5-2-8h-2c-3.238-4.377-6.299-8.733-8.937-13.5C889 433 889 433 885 428s-4-5-5.875-8.813c-3.08-4.619-7.15-5.955-12.125-8.187-2-2-2-2-4-8-2-4-2-4-7-7-2.034-3.615-3.69-7.068-5-11l-6-3c-4.397-8.71-6.741-16.273-8-26l-1-3v-7h-2c-.876-5.255-1.115-9.816-1.098-15.117l.01-5.274.026-5.484.013-5.555q.018-6.785.049-13.57h-3c-1.707-5.122-1.62-10.51-2-15.875-.892-12.585-.892-12.585-2-18.125h-1c-2-7-2-7-2-14h-2l-1 4-.125-7.313L819 242l-6-3-2.312-4.688c-3.022-5.972-6.6-9.059-11.688-13.312v-2h-6v-2l-3.937-.375L785 216l-1-2-6-1v-2l-6.75.125C764 211 764 211 760 209l-4 1-4 1-2 2c-2.933.17-5.874.213-8.812.187l-4.833-.019C732 213 732 213 727 212a266 266 0 0 0-8 7l-7 3c-5.057 3.034-8.185 6.082-12.187 10.375l-3.731 3.96C693 240 693 240 691 245l1 2c-2.544 4.91-5.1 9.7-8.25 14.25-2.785 5.969-3.01 12.259-3.75 18.75l-1 1c-1.345 7.681-1.206 15.453-1.281 23.227l-.056 4.429c-.078 6.235-.146 12.47-.215 18.705q-.08 6.84-.167 13.678l-.04 4.271c-.073 5.699-.302 11.057-1.241 16.69v6q-2.475 5.013-5 10l-1 7-3 1-1 4-4 4-2 4-6 2c-3 4-3 4-5 9l-5 5c-3.078 3.894-5.805 7.643-8.187 12L634 429h-3v4h-3v3h-2l-2 5q-2.489 3.509-5 7l-3 6-5 6a1758 1758 0 0 0-5 12 230 230 0 0 1-5 7l-3 7-2 3-2 6-2 3-3-1 1-5h2c2.748-5.496 4.312-11.093 6-17a1128 1128 0 0 1 3-9h2l1-11-3 1 2-7h2l2.25-3.625c2.75-4.375 2.75-4.375 6-7.563C616 435 616 435 617 430l3-2-1-1-1-2 1-3-1-3c2.286-2.38 4.63-4.705 7-7 3.5-4.313 3.5-4.313 6-8l-1-2 5-5 1-5 4 1 2 5c5-6 5-6 5-8h2l.188-4.375L650 381l5-2c4.068-6.78 3.133-12.215 3-20l1-2-.125-4.188C659 348 659 348 662 341c.074-4.453.074-4.453-.312-9.25-.406-5.511-.668-10.777-.563-16.313L661 311l-3-2c-.187-4.58-.15-9.17 0-13.75l.188-7.61C659 281 659 281 664 275c.165-4.997.168-10.003 0-15l1-5c.03-.866.03-.866.188-5.25 1.132-8.016 4.701-12.48 10.125-18.313C678 228 678 228 678.5 223.75l.5-3.75 6-3 5-5 6-2 3-6c6.307-4.205 10.685-6.91 18-9l4-6c4.442-2.22 10.105-.545 14.965-.246M949 589l2 1Z"/><path fill="#683541" d="m801 281 1 4h2c6 6.48 6 6.48 6 9h2c1.291 5.166 1.093 9.926 1.063 15.25l-.028 6.078L813 320h-3c-1.35 2.7-2.641 5.432-3.875 8.188L804 332l-4 1c3 6 3 6 5 8 .399 6.78.549 10.086-3 16l-2 2h-4l-1 4-6 3a794 794 0 0 0-10.062 8.188C774 378 774 378 770 379v2c-4.913 3.144-9.58 5.832-15 8l-1 2c-10.951.35-10.951.35-15-1v-2l-6-2-4-5-5-2a554 554 0 0 1-7-7l-5-3-3-3a1138 1138 0 0 0-9-3l-4-3c-.46-3.977-.46-3.977-.375-8.625l.04-4.664c.054-.612.054-.612.335-3.711l2-1 1-3h2v-2l-3-1-1-4h-2l-1-3-3-1-1-6-3-1c-2.798-8.393-.812-20.21 3-28h4l2-4c7.222-.337 13.84-.023 21 1 3.25 3 3.25 3 6 6l3 1v2l6 1c1.688 4.938 1.688 4.938 3 10l3 2 2 3c4.509-.258 8.62-.905 13-2l7 1 2-5c3.657-7.657 3.657-7.657 6-10l1.063-4.562L771 290c4.688-1.062 4.688-1.062 9-1l1-5c6.55-4.913 12.238-3.944 20-3"/><path fill="#733a43" d="M735.965 188.754c9.365.382 18.72.162 28.09-.012 7.022.26 13.145 1.566 19.945 3.258 4.813-.313 4.813-.313 8-1l-1 2 7 1c3.267 3.267 3.17 7.569 4 12l1 2c2.656.409 5.325.745 8 1l1 5a157 157 0 0 0 7 6c2 3 2 3 4 8l2.938 4.812c2.603 4.41 4.357 8.399 6.062 13.188l3 5c2.128 8.02 3.356 15.74 4 24l1 2c.159 3.682.251 7.366.316 11.05l.127 6.94.12 7.322.13 7.1c.244 13.864.366 27.722.307 41.588l-3-1v-20h-2c-1.166-19.985-1.547-39.99-2-60h-2l-1.812-6.438c-4.87-16.833-10.206-28.342-23.118-40.507L804 220v-2h-2l-3-5c-9.47-4.626-19.408-7.846-30-8v-2q-6.437.211-12.875.437l-7.242.247C743 204 743 204 741 205c-3.666.04-7.334.043-11 0v2l-6.5 1.75c-14.33 4.299-14.33 4.299-18.5 11.25l-4.25 3.25c-6.805 5.372-10.889 11.027-14.75 18.75l-2 1c-2.38 5.552-3.832 10.159-5 16h-2c-3.556 18.727-3.487 37.334-3.562 56.312q-.035 7.031-.092 14.063-.037 4.338-.044 8.678C673.167 355.725 671.771 371.05 662 386l-3.75 6c-3.25 5-3.25 5-7.25 10l-2 7-5 5c-3.078 3.894-5.805 7.643-8.187 12L634 429h-3v4h-3v3h-2l-2 5q-2.489 3.509-5 7l-3 6-5 6a1758 1758 0 0 0-5 12 230 230 0 0 1-5 7l-3 7-2 3-2 6-2 3-3-1 1-5h2c2.748-5.496 4.312-11.093 6-17a1128 1128 0 0 1 3-9h2l1-11-3 1 2-7h2l2.25-3.625c2.75-4.375 2.75-4.375 6-7.563C616 435 616 435 617 430l3-2-1-1-1-2 1-3-1-3c2.286-2.38 4.63-4.705 7-7 3.5-4.313 3.5-4.313 6-8l-1-2 5-5 1-5 4 1 2 5c5-6 5-6 5-8h2l.188-4.375L650 381l5-2c4.068-6.78 3.133-12.215 3-20l1-2-.125-4.188C659 348 659 348 662 341c.074-4.453.074-4.453-.312-9.25-.406-5.511-.668-10.777-.563-16.313L661 311l-3-2c-.187-4.58-.15-9.17 0-13.75l.188-7.61C659 281 659 281 664 275c.165-4.997.168-10.003 0-15l1-5c.03-.866.03-.866.188-5.25 1.132-8.016 4.701-12.48 10.125-18.313C678 228 678 228 678.5 223.75l.5-3.75 6-3 5-5 6-2 3-6c6.307-4.205 10.685-6.91 18-9l4-6c4.442-2.22 10.105-.545 14.965-.246"/><path fill="#2f2e32" d="M630 460h3c0 8 0 8-3 15h-2v9h-2l-.75 4.063c-1.195 4.721-2.735 7.822-5.25 11.937-2.384 5.562-3.763 10.17-5 16l-1 1c-2.737 28.894-2.737 28.894 4 39l2 6 2 4 .5 4.188.5 3.812 2 1 2 7 3 4v4l4 2 6 4q6.991.625 14 1c3.727 1.242 7.425 2.58 11.063 4.063C670 603 670 603 675 604l5 5 5 3q5.037 5.466 10 11l3 2 2 5 3 5c1.016 13.205 1.016 13.205-2.687 19.75-4.883 4.79-8.607 7.143-15.313 7.563l-5-.313-2-4 6.75-.25C692 657 692 657 696 653l1-3h2c-.484-6.288-1.44-10.029-4-16l-1-3h-2l-10-10v-2l-6-2-3.5-2.312c-8.003-4.78-16.31-7.375-25.5-8.688l-6-2 2 5-2 1 3 5-1 2-4-4v-3h-3l-1-7-3-1v-4l-3-1-3-5c-5.358-6.84-5.358-6.84-10-8l-2 2-6 2c-2.887 2.574-2.887 2.574-5.687 5.688l-2.825 3.074C597 600 597 600 594 607l-4 6h-2l-1 4-3 3h-2l-1 3a239 239 0 0 1-10 3l-4 2c-3.337-.299-6.67-.642-10-1q-4.436-.148-8.875-.187l-4.367-.043C540 627 540 627 536 629c-.556 12.333-.556 12.333 1 17 .286 4.288.505 8.581.688 12.875l.324 7.055c-.013 6.477-.41 9.468-5.012 14.07-4.273 7.122-3.8 12.722-4 21l2 1h-4v-2l-6 1c-.082-2.687-.14-5.375-.187-8.062l-.106-4.536C521 684 521 684 524 677l-1-3 1-4 4-2c.75-6.125.75-6.125 1-12l-2 1c-4.078-8.783-2.533-15.723-1-25l1-2c0-8 0-8-1-10 5-3 5-3 8-3v-2l6-1v-2c5 0 5 0 7 1l2-1 4.563-.375L558 611l1-3h2l1 3-4 5h12v-2h4v-2l5-3 1-4 5-2 3-4h2v-6a208 208 0 0 1 4-10h2l1-3h3l1-4c2-2 2-2 9-3v-2h-8v-3c2-1 2-1 8-1v3h7c-2-5-2-5-6-11a695 695 0 0 1-1-8l-3-1c-1.54-13.095-.533-24.342 3-37l1-1 1-7q1.425-4.525 3-9l2-6h3v-5l2-2 .938-4.062c.35-1.3.7-2.6 1.062-3.938l3-1v-7l2-2z"/><path fill="#a6616e" d="m800 293 3 5 2 1c.596 11.436-.672 18.508-7 28-4 3-4 3-6 3 2 4 2 4 6 6l1 4-2-1c-3.248-.21-6.498-.368-9.75-.5-5.564-.227-10.749-.583-16.25-1.5v-3l-7-1-2-3-7-1-1 5h-1l-1-8h-8l-3 3h-2l-1 3c-4.628 3.085-8.483 4-14 4v3h-8v2l-3.75.25C708 342 708 342 704 346h-3l-1 10h-3c-.312-5.75-.312-5.75 0-12 5-4 5-4 7-4v-2l6-3-4-2v-2l-4-1c-6.94-9.717-10.197-17.914-9-30 2.25-3.812 2.25-3.812 6-6 6.375-.375 6.375-.375 12 0v2l4 1c7.686 7.686 14.508 14.525 18 25 6-1 6-1 12-4 8.667 0 12.72 2.632 20 7v2h4l-1-3c-.515-6.9.235-11.164 4-17a155 155 0 0 1 8-7l5-5c4.853-3.235 9.341-2.413 15-2"/><path fill="#c57b8a" d="m772 198 1 1 4.625.313c7.475.806 14.148 2.632 21.375 4.687v2h3l1 2c2.656.409 5.325.745 8 1l1 5a157 157 0 0 0 7 6c2 3 2 3 4 8l2.938 4.813c2.603 4.41 4.357 8.398 6.062 13.187l3 5c2.128 8.02 3.356 15.74 4 24l1 2c.159 3.682.251 7.366.316 11.05l.127 6.94.12 7.322.13 7.1c.244 13.864.366 27.722.307 41.588l-3-1v-20h-2c-1.166-19.985-1.547-39.99-2-60h-2l-1.812-6.437c-4.87-16.834-10.206-28.343-23.118-40.508L804 220v-2h-2l-3-5c-9.47-4.626-19.408-7.846-30-8v-2q-6.437.21-12.875.438l-7.242.246C743 204 743 204 741 205c-3.666.04-7.334.043-11 0v2l-6.5 1.75c-14.33 4.299-14.33 4.299-18.5 11.25l-4.25 3.25c-6.805 5.372-10.889 11.027-14.75 18.75l-2 1c-2.38 5.552-3.832 10.159-5 16h-2c-3.556 18.727-3.487 37.334-3.562 56.313q-.035 7.03-.092 14.062-.037 4.338-.044 8.678c-.135 17.679-1.539 32.985-11.302 47.947l-3.25 5.313C653.819 398.79 648.424 405.875 643 413a6376 6376 0 0 0-6 8l-3 4h-2l-2 5c-3 5-3 5-8 10a1113 1113 0 0 0-5 10h-2v2h-2c.98-4.9 2.315-7.85 5-12h2l1-5a241 241 0 0 1 6-9c3.243-4.864 5.134-8.588 7-14h3v-2h3l.75-4.375L642 401l4-2 1-4q2.97-3.526 6-7l1-3 2-1 3-5 3-1 1-6q1.471-6.007 3-12h2v-5l1-1c.1-6.084.137-12.158.14-18.242q.029-5.745.06-11.488c.028-6.05.05-12.099.05-18.148.004-5.83.039-11.66.078-17.49l-.021-5.393c.156-16.37 3.574-31.425 10.693-46.239h2l1-4c3-5 3-5 8-10l4.25-4.5c4.418-4.186 8.385-6.734 13.75-9.5l1-2a831 831 0 0 1 10-4l5-3c14.915-3.729 31.777-2.355 47-2"/><path fill="#280c13" d="m756.125 202.938 7.258.027L769 203v2l4.313-.437c9.651.63 21.65 3.4 28.687 10.437v3h2a674 674 0 0 1 7 8l4.5 4.188c7.003 7.489 11.488 15.754 13.5 25.812l1.625 4.688C832 265 832 265 832 270h2c1.607 6.427 1.3 13.028 1.438 19.625.357 14.465.856 28.92 1.5 43.375l.226 5.538.238 5.15.203 4.574C838 352 838 352 840 356c.358 2.663.694 5.33 1 8l1 1v5l3 1v4h2c2.87 4.056 5.527 8.118 7.875 12.5C857 391 857 391 861 395.438c3.646 4.158 5.655 7.63 8 12.562l5 6c-6-2-6-2-9-5l-2-6c-2-4-2-4-7-7-2.034-3.615-3.69-7.068-5-11l-6-3c-4.397-8.71-6.741-16.273-8-26l-1-3v-7h-2c-.876-5.255-1.115-9.816-1.098-15.117l.01-5.274.025-5.484.014-5.555q.018-6.785.049-13.57h-3c-1.707-5.122-1.62-10.51-2-15.875-.892-12.585-.892-12.585-2-18.125h-1c-2-7-2-7-2-14h-2l-1 4-.125-7.312L819 242l-6-3-2.312-4.687c-3.022-5.973-6.6-9.06-11.688-13.313v-2h-6v-2l-3.937-.375L785 216l-1-2-6-1v-2l-6.75.125C764 211 764 211 760 209l-4 1-4 1-2 2c-2.933.17-5.874.214-8.812.188l-4.833-.02C732 213 732 213 727 212a266 266 0 0 0-8 7l-7 3c-5.057 3.034-8.185 6.082-12.187 10.375l-3.731 3.96C693 240 693 240 691 245l1 2c-2.544 4.91-5.1 9.7-8.25 14.25-2.785 5.969-3.01 12.259-3.75 18.75l-1 1c-1.345 7.681-1.206 15.453-1.281 23.227l-.056 4.429c-.078 6.235-.146 12.47-.215 18.705q-.08 6.84-.167 13.678l-.04 4.271c-.073 5.699-.302 11.057-1.241 16.69v6a1118 1118 0 0 1-5 10l-1 7-3 1-1 4-4 4-2 4-6 2-4 4c2-5 2-5 7-11a418 418 0 0 0 4-7l6-9c6.357-12.714 5.144-29.075 5.246-42.957l.1-9.248q.072-7.208.13-14.415c.04-4.675.092-9.35.145-14.025l.026-4.29c.138-11.333.751-22.26 4.353-33.065h2l.25-4c.996-6.638 2.995-11.245 7.75-16l1.688-3.125c4.51-7.558 10.173-12.878 17.312-17.875l2-4c6.71-3.954 14.142-7 22-7v-2l5.375-.437c16.458-1.646 16.458-1.646 20.75-1.625"/><path fill="#b36676" d="M830 221c2.884 5.768 3.177 11.649 4 18l2-4 2 10h3c2.56 5.971 3.516 9.712 4 16h3c.075 5.55-.084 10.505-1 16l-.5 6.25C846 289 846 289 845 291l1 3.563c1.399 7.606.617 14.763 0 22.437-2.074 28.851-2.074 28.851 0 33h-2l1 6 2 1 1 5c1.813 4.813 1.813 4.813 4 9h4c2 3 2 3 3 6l2-1c2 5 2 5 3 12a181 181 0 0 0 6 8v2h2v2h2l1-8h2v-2h2v-5l1 2h2c1.287 6.864 2.171 13.598 2.563 20.563C885 415 885 415 886 418l4 1v-5h1v5l5 1 .313 4.375L897 429l3 2a499 499 0 0 1 3 8l2 1v6l1 1 2-7h1l1 7 1 4-1 4h2l1 4 2 1 1-3c3 4 3 4 3.938 11.125.92 6.822 2.39 11.64 5.062 17.875v5h-2c-3-6-3-6-3-11h-2c-10-15.625-10-15.625-10-20l-4-2c-2-5-2-5-2-8h-2c-3.238-4.377-6.299-8.733-8.937-13.5C889 433 889 433 885 428s-4-5-6-8.687c-2.626-4.35-6.163-7.016-10-10.313-2.41-3.616-4.764-7.273-7-11l-4.437-5.375c-4.721-5.82-7.803-10.726-10.563-17.625h-2l-1-4-2-1c-1.783-5.35-2.911-10.482-4-16l-1-2a441 441 0 0 1-.062-11.125l.027-6.133L837 330h1v20h2c.072-15.88-.146-31.748-.437-47.625l-.12-7.336-.127-6.953-.11-6.311C839 277 839 277 838 275l-.875-7.562c-1.018-8.434-2.724-15.102-7.125-22.438l-2-7c-2.09-3.979-4.298-7.398-7-11l1-2 6 6 .438-4.437C829 222 829 222 830 221"/><path fill="#2c1215" d="M743 326h8c1 1 1 1 1.063 5.563L752 336l3-1 1 3-1 2c4-1 4-1 7-2v3h11v2h7v2c4.437-.457 8.668-.917 13-2 1 1 1 1 1 6-5.655 4.862-11.714 9.179-19 11v2l-4.75 1.75C765 366 765 366 761 370l-7 1-1 1c-12.245.671-18.9-3.418-29-10l-4.875-2.625C715 357 715 357 710 352v-2l4.938-.937C720 348 720 348 721 347c2-1 2-1 8-1 6.359-1.045 8.83-1.863 14-6l3-1v-4l-1 4h-2c-2-6-2-6-2-11z"/><path fill="#491922" d="m801 281 1 4h2c6 6.48 6 6.48 6 9h2c1.291 5.166 1.093 9.926 1.063 15.25l-.028 6.078L813 320h-3c-1.35 2.7-2.641 5.432-3.875 8.188L804 332l-4 1v2l-4-2 7.52-8.887c5.018-6.298 5.829-10.014 5.668-17.925l-.083-5.208L809 297l-4-1v-4c-9.601-2.4-17.305-.348-26 4l-1 2h-2v2l-3 1c-3.964 7.927-6.396 14.181-7 23-4-1-4-1-8.812-3.062C752 319 752 319 745 319l-4.125 2.063C737 323 737 323 732 322a419 419 0 0 1-4-9c-4.054-5.47-7.678-9.742-13-14l-1-2-3-1v-2c-11.375.375-11.375.375-17 6-1.1 12.223 2.12 20.12 9 30l3 1 1 2 5 1c-5 4-5 4-8 4v2c-5 4-5 4-7 4 .75 11.5.75 11.5 3 16h4l4 5c-6-1-6-1-12-5-.656-4.074-.656-4.074-.5-8.687l.094-4.637L696 343l2-1 1-3h2v-2l-3-1-1-4h-2l-1-3-3-1-1-6-3-1c-2.798-8.393-.812-20.21 3-28h4l2-4c7.222-.337 13.84-.023 21 1 3.25 3 3.25 3 6 6l3 1v2l6 1c1.688 4.938 1.688 4.938 3 10l3 2 2 3c4.509-.258 8.62-.905 13-2l7 1 2-5c3.657-7.657 3.657-7.657 6-10l1.063-4.562L771 290c4.688-1.062 4.688-1.062 9-1l1-5c6.55-4.913 12.238-3.944 20-3"/><path fill="#653038" d="M735.965 188.754c9.365.382 18.72.162 28.09-.012 7.022.26 13.145 1.566 19.945 3.258 4.813-.313 4.813-.313 8-1l-1 2 7 1c3.307 3.307 2.654 7.507 3 12h-2v-2l-6.375-.938C786 202 786 202 784 201l-5.562-.5C773 200 773 200 772 199c-42.446-.99-42.446-.99-54.75 6.187C714 207 714 207 710 207l-1 3-3.937 2.062c-6.068 3.521-10.245 7.866-15.063 12.938l-5 5-3 7h-2l-1 4h-3l-1 6-3 7-2 5-1 1q-.555 4.995-1 10h-2v8l-2 1q-.04-4.593-.062-9.188l-.036-5.167C664 260 664 260 665 255l.188-5.25c1.132-8.016 4.701-12.48 10.125-18.313C678 228 678 228 678.5 223.75l.5-3.75 6-3 5-5 6-2 3-6c6.307-4.205 10.685-6.91 18-9l4-6c4.442-2.22 10.105-.545 14.965-.246"/><path fill="#874c55" d="m805 292 1 4 3 1c2.745 5.489 1.74 13.022 1 19-3.687 6.188-3.687 6.188-8 11l-5 6 5 5c3 3 3 3 3.188 7.688L805 350h-2l-2 4-5 4-5 5a397 397 0 0 1-8 6l-2-2c4-5 4-5 8-9h-4v2a802 802 0 0 1-12 6l-6 4h-2l-1 3c-6.982 4.19-11.913 4.43-20 4-5.625-1.812-5.625-1.812-10-4l-1-3-4-1c-3.75-1.937-3.75-1.937-7-4v-2l-4-1c-5.226-2.762-10.074-5.716-15-9v-3c4 1 4 1 7 3v2l5 1c5.065 2.61 9.787 5.513 14.563 8.625C737.76 369.713 743.3 371.532 753 371l1-1 7-1 4-4c6-3 6-3 10-3v-2a256 256 0 0 1 7-4l4.75-3.187C791 350 791 350 794 349l-1-5-4 1c-3 .04-6 .044-9 0v-2h-7v-2l-3.812.563C765 342 765 342 762 341v-3l-5 3-2-1-1-4h-2l-1-9-7-1v-1h8c1 1 1 1 2 8l1-4h7l4 4 5 1v3l12.938.5 7.277.281C797 338 797 338 798 338v-2l-5-2-1-4 3.313-2.187c5.728-4.37 7.357-8.973 8.687-15.813.387-4.329.729-8.662 1-13l-3-1-2-4c-8.063-.701-11.13-.58-18 4-12.92 12.92-12.92 12.92-13.125 23.313L769 327h-4v-2l-4-1-1-2 6 2-.187-4.562c.255-7.415 3.181-13.304 7.187-19.438h3v-2h2l1-3c8.047-4.828 17.221-7.39 26-3"/><path fill="#44202a" d="M598 581h2c-1.204 6.02-3.948 10.711-6.875 16.059-1.87 3.47-3.603 7.014-5.312 10.566-4.4 8.41-8.96 11.59-17.813 14.375-6.27.54-6.27.54-12.812.625-15.045.232-15.045.232-20.188 5.375-1.2 5.996-1.964 12.107 0 18 .286 4.288.505 8.581.688 12.875l.324 7.055c-.013 6.477-.41 9.468-5.012 14.07-4.273 7.122-3.8 12.722-4 21l2 1h-4v-2l-6 1c-.082-2.687-.14-5.375-.187-8.062l-.106-4.536C521 684 521 684 524 677l-1-3 1-4 4-2c.75-6.125.75-6.125 1-12l-2 1c-4.078-8.783-2.533-15.723-1-25l1-2c0-8 0-8-1-10 5-3 5-3 8-3v-2l6-1v-2c5 0 5 0 7 1l2-1 4.563-.375L558 611l1-3h2l1 3-4 5h12v-2h4v-2l5-3 1-4 5-2 3-4h2v-6l3-5h2l2-6z"/><path fill="#66323d" d="m756.125 202.938 7.258.027L769 203v2l4.313-.437c9.209.602 17.358 3.497 25.687 7.437l3 4c-7-1-7-1-10-4a420 420 0 0 0-12-3l-1-1c-23.15-3.713-23.15-3.713-34-1l-6.437.438c-6.524.559-9.92.92-14.563 5.562-9.143 4-9.143 4-13 4v2l-5 1-2 4-3.375 2.813c-3.657 3.215-5.407 5.91-7.625 10.187l-3 4q-.541 4.495-1 9l-2 1c-3.91 9.613-5.658 18.712-7 29l-1 1c-1.345 7.681-1.206 15.453-1.281 23.227l-.056 4.429c-.078 6.235-.146 12.47-.215 18.705q-.08 6.84-.167 13.678l-.04 4.271c-.073 5.699-.302 11.057-1.241 16.69v6a1118 1118 0 0 1-5 10l-1 7-3 1-1 4-4 4-2 4-6 2-4 4c2-5 2-5 7-11a418 418 0 0 0 4-7l6-9c6.357-12.714 5.144-29.075 5.246-42.957l.1-9.248q.072-7.208.13-14.415c.04-4.675.092-9.35.145-14.025l.026-4.29c.138-11.333.751-22.26 4.353-33.065h2l.25-4c.996-6.638 2.995-11.245 7.75-16l1.688-3.125c4.51-7.558 10.173-12.878 17.312-17.875l2-4c6.71-3.954 14.142-7 22-7v-2l5.375-.437c16.458-1.646 16.458-1.646 20.75-1.625"/><path fill="#915d6a" d="m943 589 3 3 1-2 2 1c3.218 10.13 3.218 10.13 2 15l2 7c-.375 4.938-.375 4.938-1 9l4 2 1 1 2-5h2l2 13 4-1-1 3 5 1a524 524 0 0 1 7 4l4 1v3l4-1v2l5-1v2h-3l1.125 5.563C990 658 990 658 988 665l-6 2-2 1c2-6 2-6 3-7 0-5 0-5-4-10l-2-1v-2l-4-1-6-2v-2l-5-1-5-3-4-1a150 150 0 0 1-4-7l-2-1c-2.65-6.625-2.527-12.908-3-20l-2-5v-5h-2v-2c-7.525-2.508-14.087-1.457-21 2h-2v3h-3v2l-6 1v2l-5 2-5 3c-4.863.293-4.863.293-10.312.188l-5.489-.083L878 613v-2l3.621-.227c12.03-.995 18.698-3.092 27.379-11.773l6-3 3.438-2c8.58-4.817 14.846-5.54 24.562-5m6 0 2 1Z"/><path fill="#f6eeee" d="m800 293 3 5 2 1c.596 11.436-.672 18.508-7 28-5.008 3.756-7.45 3.344-13.625 3.25-1.704-.015-3.408-.03-5.164-.047C775 330 775 330 773 329v-3h-2c-.378-7.74-.442-10.337 4-17l2-5c6.024-9.538 11.756-12.088 23-11"/><path fill="#201f23" d="M806 364c4 4 4 4 4 6h3v8h3c2 7 2 7 2 12h2c4 7.294 4 7.294 4 10h2l1 7a805 805 0 0 0 6 12c2 7 2 7 2 11h3v6l3 1v4h2v6l3 1v6h2v6h2l1 5 3 3c.791 3.659 1.57 7.321 2.242 11.004.661 3.485 1.507 6.934 2.383 10.371 1.205 4.93 1.833 9.596 2.375 14.625l2 5a560 560 0 0 1 2 8l1 3 .5 5.563C867 531 867 531 868 533c.073 4.541.084 9.083.063 13.625l-.028 7.54L868 560l-3 1-.184-4.121-.254-5.317c-.08-1.751-.162-3.503-.246-5.308C864 542 864 542 863 541c-1.036-7.02-1.081-13.914-1-21h-2v-9l-3-1a329 329 0 0 1-2-15l-1-7h-2l-.812-4.437c-1.08-5.06-2.496-9.682-4.188-14.563l-1.812-6.312c-2.184-6.676-4.975-12.45-8.188-18.688a535 535 0 0 1-3.812-8.312l-1.77-3.926C830 428 830 428 829 421h-2v-3h-2l-2-8h-2l-2-9h-4l-.937-6.937C813 387 813 387 812 386v-7h-2l-3-6c-3-3-3-3-9-5v-3c4-2 4-2 8-1"/><path fill="#1f1e22" d="M692 370h7v3l-3.75 1.375c-6.315 3.9-6.43 8.594-8.25 15.625l-2.562 5.938C682 402 682 402 680.438 409.375 679 416 679 416 675 422l-3 7a293 293 0 0 1-5 11h-2v5l-3 6q-2.03 6.49-4 13c-1.808 5.157-3.557 10.114-6 15l-1.5 6.063C649 491 649 491 647 494a409 409 0 0 0-2.562 13.313l-1.317 7.3c-1.084 7.144-1.668 14.18-2.121 21.387l-1 7.188c-1.144 8.937-1.632 17.815-2 26.812l-3 1q-.04-9.156-.062-18.312l-.026-5.272-.01-5.03-.016-4.649C635 534 635 534 636 531c.275-4.33.446-8.66.621-12.996C637 514 637 514 639 510c.396-3.326.736-6.66 1-10h2v-7c2.62-11.62 2.62-11.62 4-13l.875-4.25C648 471 648 471 651 466l2-7c1.938-4.937 1.938-4.937 4-9h3v-6l2-5h2l2-7 3-7 1-5h2v-5l2-1 1-5h2v-7l2-2c1.64-4.918 2.398-8.927 3-14l1-1 1-7z"/><path fill="#19191b" d="m702 633 2 1c.3 3.86.3 3.86.313 8.75l.05 4.86c-.498 6.018-2.575 8.696-7.05 12.64-4.437 2.83-7.123 3.565-12.313 3.75 1 3 1 3 4.563 5.5L693 672v3l4 1 3 4 3 1c2.386 5.832 3 9.579 3 16q7.875-.173 15.75-.375c1.473-.03 2.947-.062 4.465-.094 32.11-.856 32.11-.856 37.785-6.531q4.5-.062 9 0l-1 3a499 499 0 0 1-15 4l-1 1q-7.5.062-15 0l-1 3h-33l-1 4-2 2-2 7-2 4h-2v5l-7 7c-2-3-2-3-2-6l2-1c5-8.214 5-8.214 5-13h3c.396-20.383.396-20.383-2-27l-5-4v-2h-2l-3-4-6-3-2-4-3.437-2.812C672 660 672 660 669 653l-2-1-1-3-2-1v-4h-2v-3h3v2l3 1v3h2l5 5c5.686 4.264 10.057 3.404 17 3 3-3 3-3 5-9h2v4h-2l-1 4c-4 4-4 4-11.25 4.25L678 658l2 3c6.787.536 9.781.11 16-3 5.222-6.527 6.249-8.452 6.125-16.687l-.055-4.7z"/><path fill="#232327" d="M841.375 584.813C848 585 848 585 851 587l2 4 6 3 6 5v3c4 2 4 2 7 3l1 2c5.768 2.307 10.832 2.593 17 3v1h-12v2h19v1c-7.282 2.149-12.656 1.928-20 0l-1-3-6-1v-2l-4-1-3-2v-2l-3-1-1-4-3-2-1 2-3.312-2.875C845.64 590 845.64 590 838 590l-3 4 1 3-2 5c-.886 6.263-1.227 12.512-1.5 18.828l-.25 5.613-.25 5.809c-.503 11.601-1.028 23.176-2 34.75l-.5 6.563L829 680l-.5 6.5c-.5 5.5-.5 5.5-1.5 10.5a521 521 0 0 0-.562 10.313l-.254 5.488L826 717l-2-1v3h-2q-.079-6.844-.125-13.687l-.07-7.7C822 691 822 691 824 686c.218-2.808.332-5.625.379-8.441l.103-4.955.08-5.167q.09-5.064.192-10.128l.072-4.538C825 649 825 649 826 645c.153-3.41.25-6.822.316-10.234l.127-6.114.12-6.402.13-6.45q.16-7.9.307-15.8h2l-.312-4.187c.57-8.784 5.013-10.775 12.687-11"/><path fill="#a66370" d="M780 200c6.41 1.068 12.675 2.516 19 4v2h3l1 2c2.656.409 5.325.745 8 1l1 5a157 157 0 0 0 7 6c2 3 2 3 4 8l2.938 4.813c2.603 4.41 4.357 8.398 6.062 13.187l3 5c2.128 8.02 3.356 15.74 4 24l1 2c.159 3.682.251 7.366.316 11.05l.127 6.94.12 7.322.13 7.1c.244 13.864.366 27.722.307 41.588l-3-1v-20h-2c-1.166-19.985-1.547-39.99-2-60h-2l-1.812-6.437c-4.87-16.834-10.206-28.343-23.118-40.508L804 220v-2h-2l1-2c5.228 3.137 8.847 6.566 13 11v2h3v-3h-2l-3-5-4-4v-2l-5-2-2-2c-3.327-1.35-6.662-2.68-10-4a555 555 0 0 1-13-6z"/><path fill="#fbf4f4" d="M700 297c8.894 0 12.708 1.844 19.313 7.75 5.27 5.903 6.51 9.738 7.062 17.563L726 327c-4 2-4 2-7 2v2c-2 1-2 1-10 1-5-3-5-3-6-6l-2-1v-3h-2c-3.74-7.479-3.491-12.724-3-21z"/><path fill="#482b36" d="M619 575c3.25 3.375 3.25 3.375 5 7l3 2v3l-5 1-4-4c-10.14 1.91-14.658 8.39-21 16l-3 7-4 6h-2l-1 4-3 3h-2l-1 3a239 239 0 0 1-10 3l-4 2c-3.337-.299-6.67-.642-10-1q-4.436-.148-8.875-.187l-4.367-.043C540 627 540 627 536 629c5-6 5-6 9-7 6.231-.199 12.462-.318 18.695-.426 7.97-.726 13.682-2.125 19.606-7.656 3.22-4.674 5.54-9.438 7.886-14.606 4.538-9.945 4.538-9.945 7.813-14.312l1-4c-2 1-2 1-5 7l-2-1 1-4h2l1-3h3v-2c6.202-4.651 11.48-3.622 19-3"/><path fill="#51212b" d="M819 235c5.806 5.806 8.25 13.129 10 21l1.625 4.688C832 265 832 265 832 270h2c1.607 6.427 1.3 13.028 1.438 19.625.357 14.465.856 28.92 1.5 43.375l.226 5.538.238 5.15.203 4.574C838 352 838 352 840 356c.358 2.663.694 5.33 1 8l1 1v5l3 1v4h2c2.87 4.056 5.527 8.118 7.875 12.5C857 391 857 391 861 395.438c3.646 4.158 5.655 7.63 8 12.562l5 6c-6-2-6-2-9-5l-2-6c-2-4-2-4-7-7-2.034-3.615-3.69-7.068-5-11l-6-3c-4.397-8.71-6.741-16.273-8-26l-1-3v-7h-2c-.876-5.255-1.115-9.816-1.098-15.117l.01-5.274.025-5.484.014-5.555q.018-6.785.049-13.57h-3c-1.707-5.122-1.62-10.51-2-15.875-1.091-15.4-1.091-15.4-3-21.125l-.437-5.625c-.472-5.345-1.266-10.186-2.563-15.375l-1-4h-2z"/><path fill="#5d2e38" d="M830 221c2.884 5.768 3.177 11.649 4 18l2-4 2 10h3c2.56 5.971 3.516 9.712 4 16h3c.075 5.55-.084 10.505-1 16l-.5 6.25C846 289 846 289 845 291l1 3.563c1.854 10.08.33 20.336-1 30.437h-1v-5h-2l-.152-3.972c-.233-5.968-.478-11.936-.723-17.903l-.238-6.25-.254-6.055-.222-5.554c-.645-8.273-2.383-15.57-5.411-23.266l-2-7-3-5-2-7c-2.09-3.979-4.298-7.398-7-11l1-2 6 6 .438-4.437C829 222 829 222 830 221"/><path fill="#4f353d" d="M920 474c3 3 3 3 4 5l5 2c-1 5-1 5-2 8l4 6a261 261 0 0 1 2 9l2 3 1 7h2c-.844 3.376-1.9 6.698-3 10l4 1v25l1-15h1c1.241 8.687 1.793 15.622-1 24-.33 7.009.04 13.246 2 20l2 1c-1.5 4.5-1.5 4.5-4 9h-8l1-2h2c1.565-9.393 1.184-18.807 1.188-28.312l.037-6.252.005-5.924.013-5.455L936 537l-2-1a490 490 0 0 1-1-11l-1-1v-7l-3-1a674 674 0 0 1-3-13 620 620 0 0 0-4-10l-1-6 2 4h2l-1.937-6.25c-1.09-3.563-2.16-7.135-3.063-10.75"/><path fill="#a76e79" d="M598 581h2c-1.204 6.02-3.948 10.711-6.875 16.059-1.87 3.47-3.603 7.014-5.312 10.566-4.4 8.41-8.96 11.59-17.813 14.375-6.27.54-6.27.54-12.812.625-10.466.161-14.943.504-23.188 7.375-1.622 4.865-1.617 9.91-2 15l-2-1c-.266-3.64-.266-3.64-.25-8.25l-.016-4.578C530 627 530 627 532 622c3-2 3-2 8-2v-3h30v-3h4v-2l5-3 1-4 5-2 3-4h2v-6l3-5h2l2-6z"/><path fill="#452225" d="M735.965 188.754c9.365.382 18.72.162 28.09-.012 7.022.26 13.145 1.566 19.945 3.258 4.813-.313 4.813-.313 8-1l-2 3c-7.062.25-7.062.25-14 0l-1-1c-8.595-.536-17.205-.705-25.812-.938l-7.4-.283-7.058-.181-6.518-.203L723 192l-4 6c-6 3-6 3-10 3l-2 4c-4 4-4 4-9 6l-2 2h-3l-1 3h-2l-1 3-7 2v6h-2l-1 7-5 6-2 5-4 1-1 4-2 1c1.231-8.62 4.442-13.248 10.313-19.563C678 228 678 228 678.5 223.75l.5-3.75 6-3 5-5 6-2 3-6c6.307-4.205 10.685-6.91 18-9l4-6c4.442-2.22 10.105-.545 14.965-.246"/><path fill="#b87380" d="M669 371c0 7.054-5.772 13.715-10 19l-1.883 3.316c-2.379 4.14-5.102 7.823-7.992 11.622l-3.055 4.027L643 413a6366 6366 0 0 0-6 8l-3 4h-2l-2 5c-3 5-3 5-8 10a1113 1113 0 0 0-5 10h-2v2h-2c.98-4.9 2.315-7.85 5-12h2l1-5a241 241 0 0 1 6-9c3.243-4.864 5.134-8.588 7-14h3v-2h3l.75-4.375L642 401l4-2 1-4q2.97-3.526 6-7l1-3 2-1 3-5c4-2 4-2 6-2z"/><path fill="#9f5360" d="M838 265c8.146 8.146 4.063 35.628 4.063 46.563A1866 1866 0 0 1 842 320h2q.252 5.313.5 10.625l.281 5.977c.154 3.797.219 7.598.219 11.398l1 2h-2l1 6 2 1 1 5c1.813 4.813 1.813 4.813 4 9h4c2 3 2 3 3 6l2-1c2 5 2 5 3 12l3 4-1 2c-4.482-4.482-7.563-8.73-11-14l-2-2v-3l-3-1a312 312 0 0 1-4-10l-3-5-1-4c0 6 0 6 1 8v7h-1c-1.783-5.35-2.911-10.482-4-16l-1-2a441 441 0 0 1-.062-11.125l.027-6.133L837 330h1v20h2c.072-15.88-.146-31.748-.437-47.625l-.12-7.336-.127-6.953-.11-6.311C839 277 839 277 838 275c-.04-3.333-.043-6.667 0-10"/><path fill="#c07c8a" d="M831 252h3c2.496 5.823 3.504 9.245 4.125 15.313C839 275 839 275 840 277c.159 3.682.251 7.366.316 11.05l.127 6.94.12 7.322.13 7.1c.244 13.864.366 27.722.307 41.588l-3-1v-20h-2c-.541-9.583-1-19.15-1.184-28.746l-.097-4.706q-.092-4.632-.15-9.264c-.215-10.392-1.631-20.072-3.569-30.284z"/><path fill="#6a3a44" d="M559 608h2l1 3-4 5h12v1h-30v3l-3.937.688L532 622c-.962 4.809-1.1 8.925-1.062 13.813l.027 4.644L531 644l.375-5.25C532 633 532 633 534 629l1 2-1 3c-.234 10.298-.234 10.298 1 14 .123 3.082.176 6.166.188 9.25l.042 5.016C535 667 535 667 533 674l-2 1a458 458 0 0 0-4 13h-2l-1 9h-1c-.977-7.282-1.37-10.258 2-17h2l1-6h2v-8l1-1q.558-6.995 1-14h-2c-1.862-6.517-2.353-11.594-2.562-18.312-.34-10.49-.34-10.49-1.438-12.688 5-3 5-3 8-3v-2l6-1v-2c5 0 5 0 7 1l2-1 4.563-.375L558 611z"/><path fill="#6a4b51" d="M703 350c4 1 4 1 7 3v2l5 1c5.065 2.61 9.787 5.513 14.563 8.625C737.76 369.713 743.3 371.532 753 371l1-1 7-1 4-4c6-3 6-3 10-3v-2a208 208 0 0 1 7-4l6-4 2 1-1 2 4-2h3v2c-4 3-4 3-6 3l-1 2v-2h-4v2a802 802 0 0 1-12 6l-6 4h-2l-1 3c-6.982 4.19-11.913 4.43-20 4-5.625-1.812-5.625-1.812-10-4l-1-3-4-1c-3.75-1.937-3.75-1.937-7-4v-2l-4-1c-5.226-2.762-10.074-5.716-15-9z"/><path fill="#dc93a1" d="m772 198 1 1 3.563.625c15.11 3.821 30.666 11.063 40.437 23.375v3h2v3h-3a229 229 0 0 1-7-8c-3-3-3-3-8-6l-5-3a279 279 0 0 0-8.312-3.187l-4.364-1.606L780 206v-2h-7l-1-1a535 535 0 0 0-14.25-.187l-7.953-.043c-19.132.565-19.132.565-21.797 3.23h-5l1-3h6v-3c13.898-2.647 27.893-2.413 42-2"/><path fill="#2d2a2f" d="M692 370h7v3l-3.75 1.375c-6.315 3.9-6.43 8.594-8.25 15.625l-2.562 5.938C682 402 682 402 680.438 409.375 679 416 679 416 675 422l-3 7a293 293 0 0 1-5 11h-2v5l-3 6-1 5-3 1-1-7h3v-6l2-5h2l2-7 3-7 1-5h2v-5l2-1 1-5h2v-7l2-2c1.64-4.918 2.398-8.927 3-14l1-1 1-7z"/><path fill="#753442" d="M716 293c3.313 2.938 3.313 2.938 6 6v3l4 1c4.35 4.35 4.732 6.205 6 12l2 4 6 1-3 3-5-1a419 419 0 0 1-4-9c-4.054-5.47-7.678-9.742-13-14l-1-2-3-1v-2c-11.375.375-11.375.375-17 6-1.1 12.223 2.12 20.12 9 30l3 1 1 2 5 1c-5 4-5 4-8 4v2l-2-1v-5c-2-3-2-3-5-4-6.8-8.499-7.704-15.266-7.559-25.71.767-5.886 2.972-8.636 7.559-12.29 6.48-2.16 12.772-1.491 19 1"/><path fill="#3d141d" d="m793 212 5 3 4 1v2h2a592 592 0 0 1 7 8l4.438 4.188C819 234 819 234 819 239h2c2.054 4.108 2.8 7.438 3.625 11.938l.79 4.214C826 259 826 259 826 264c-3-4-3-4-3-11h-2l-1 4-.125-7.312L819 242l-6-3-2.312-4.687c-3.022-5.973-6.6-9.06-11.688-13.313v-2h-6v-2l-7-3-1-2c-6.167-2.056-11.548-2.51-18-3l-2-1a212 212 0 0 0-8.125-.125l-4.445-.008c-4.212.126-8.255.595-12.43 1.133-4 .038-8 .045-12 0 5.56-2.78 10.841-2.585 17-3 15.786-3.947 33.272.109 48 6"/><path fill="#330c13" d="m801 281 1 3-7.187-.25C787 284 787 284 782 288l-3 4h-3l-2 4-3 5-2 5-3 3a284 284 0 0 0-3 9c-1 1-1 1-4.781 1.063l-9.438-.125C745 319 745 319 744 320h-8v-6l-4-2c-2-7-2-7-3-13l3 1q1.517 4.995 3 10l3 2 2 3c4.509-.258 8.62-.905 13-2l7 1 2-5c3.657-7.657 3.657-7.657 6-10l1.063-4.562L771 290c4.688-1.062 4.688-1.062 9-1l1-5c6.446-4.835 12.333-4.227 20-3"/><path fill="#5f2e38" d="m949 589 2 1Zm-2 1 2 1c3.218 10.13 3.218 10.13 2 15l2 7c-.375 4.938-.375 4.938-1 9l4 2 1 1 2-5h2l2 13 4-1-1 3 5 1a524 524 0 0 1 7 4l4 1v3l4-1v2l5-1v2h-3l1.125 5.563C990 658 990 658 988 665l-6 2-2 1c2-6 2-6 3-7 0-5 0-5-4-10l-2-1v-2l-4-1-6-2c5.021-1.255 7.318.05 12 2v2l4 2 3 4v-5l-3-3v-2c-6.22-3.11-12.397-5.8-19-8v-2l-4-1c-3.75-3.375-3.75-3.375-7-7v-3h-3c-1.256-11.327-2.324-22.624-3-34"/><path fill="#642b33" d="M744 325h8c1 1 1 1 2 8l1-4h7l4 4 5 1v3l6.25.375c17.989 1.45 17.989 1.45 22.75 4.625v7h-2l-3-3-1 3-1-5-4 1c-3 .04-6 .044-9 0v-2h-7v-2l-3.812.563C765 342 765 342 762 341v-3l-5 3-2-1-1-4h-2l-1-9-7-1z"/><path fill="#37161e" d="m937 596 3 2v2h2l.938 4.438C944 609 944 609 945 610q.516 7.5 1 15l1 5 3 1c3 5 3 5 3 7l5 1c4.813 1.938 4.813 1.938 9 4v2l7 2 3 1v2l4 2v2h-2l-3-3c-5-3-5-3-10-3l-7-2v-4l-4-1c-5-5-5-5-6-8h-2l-1-6h-2l-2-4-2 1c-1.373-4.118-1.093-7.853-1.062-12.187l.027-4.981L939 603c-6.655-.95-10.59-.56-17 1l-1 1-7-1 3-1v-3c6.582-4.43 12.219-4.513 20-4"/><path fill="#86404b" d="M731 194c6.854-.058 13.708-.094 20.563-.125l5.892-.05 5.674-.02 5.22-.032C773 194 773 194 780 196v2l4.438-.125L789 198l1 2h5l6 3v3h-2v-2l-6.375-.937C786 202 786 202 784 201l-5.562-.5C773 200 773 200 772 199c-42.446-.99-42.446-.99-54.75 6.188C714 207 714 207 710 207l-1 3-7 3v-2c3-2 3-2 6-2v-3h4l1-3a252 252 0 0 1 10-3l7-3z"/><path fill="#d39199" d="m778 301 2 1-3 3-3 7-2 3a285 285 0 0 0-1 11h2v3l4.086.078 5.289.172 5.273.14L792 330l2 4 4 2 1 4-2-1-7.937-.812c-11.42-1.313-20.497-4.721-30.063-11.188l-2-4h-5v-3c7 1 7 1 10 4l3 1v2h4l-1-3c-.515-6.903.334-11.114 4-17 3.25-3.5 3.25-3.5 6-6"/><path fill="#1e0d0f" d="M718 364c5.664 1.133 9.932 3.266 15 6l1 2c7.274 3.533 12.941 4.583 21 4 5.638-2.255 8.676-3.676 13-8 4.9-2.94 7.471-3.531 13-4l-2 4h-2v2l-3 1-3 4h-4v2h-4v2l-5 1-1 2c-9.762.61-15.757.707-24-5l-4.562-2.687L725 372v-2l-4-2z"/><path fill="#4a1c24" d="M675 280h1q.251 16.07.482 32.141.08 5.467.166 10.936.122 7.856.23 15.712l.083 4.944c.082 6.243.068 12.094-.961 18.267v6a1118 1118 0 0 1-5 10l-1 7-3 1-1 4-4 4-2 4-6 2-4 4c2-5 2-5 7-11a418 418 0 0 0 4-7l6-9c2-4 2-4 3-11l2-1a256 256 0 0 0 1-11h2z"/><path fill="#d697a5" d="M704.563 295.688C710 296 710 296 713 297l1 3-7-2h-7c-3 3-3 3-3.312 10.313C697 316 697 316 699 322h2v3l3 1v3c5.425 2.17 9.222 2.154 15 2v-2c4-2 4-2 7-2-.875-9.875-.875-9.875-2-11v-6l2 1c1.968 5.903 2.32 9.857 2 16l-2 3 4-2h3v3c-6.057 4-6.057 4-10 4v3l-17 2c1-3 1-3 4-5l-4-2v-2l-4-1c-2.625-3.875-2.625-3.875-5-8l-2-3c-.245-3.139-.351-6.29-.375-9.437l-.086-5.122c.736-7.093 3.102-8.365 10.024-8.753"/><path fill="#783540" d="m879 385 1 2h2c1.287 6.864 2.171 13.598 2.563 20.563C885 415 885 415 886 418l4 1v-5h1v5l5 1 .313 4.375L897 429l3 2 1 5-5-2v-3l-3-1v-3h-2c-8.02-8.334-15.87-17.912-16.125-29.812L875 392h2v-2h2z"/><path fill="#d28191" d="M841 352c2 3 2 3 3.5 7.063C846 363 846 363 848 365l1.5 4.563C851 374 851 374 853 375l3 5 3.688 5.188C863 390 863 390 863 392l4 2 2 5 4.125 5.125C877 409 877 409 877 412h-3l-1-3-5-4c-8.42-9.214-16.334-18.335-21-30h-2c-3.107-7.767-4.265-14.639-4-23"/><path fill="#91474f" d="M669 270h1q.074 17.78.11 35.56.015 6.048.04 12.099c.025 5.793.036 11.587.045 17.38l.032 5.474v5.095l.014 4.482C670 354 670 354 668 360h-2l-.312 4.5c-.631 5.047-1.523 8.92-3.688 13.5l-3 1c.75-13.375.75-13.375 3-19h3v-16l3-1-.016-4.548q-.029-10.35-.047-20.702l-.025-7.152c-.019-13.567.225-27.057 1.088-40.598"/><path fill="#442b31" d="M803 350h2c-2 6-2 6-5 9h-4l-1 4-6 3a794 794 0 0 0-10.062 8.188C774 378 774 378 770 379v2l-3 2-3-1 4-4h-4v2c-8.333 5-8.333 5-13 5v2h-7v-2l-4-1-1-4 3 1q7.497.55 15 1l1-3h5v-2h4v-2l5-2 2-3h3v-2l4-4-5 1c1-2 1-2 6-5h3v-2h4c-2 4-2 4-7 9 4.937 0 7.442-3.838 11-7h2l1-3 6-5z"/><path fill="#634851" d="m723 371 1 2h5l5 4 5 3 1 4h5l-1 3h7v-2c4.306-2.09 8.352-3.838 13-5v-2h4l-2 4h-2l-1 3c-4 3-4 3-8 4l-1 2c-10.951.35-10.951.35-15-1v-2l-6-2-4-5-4.25-3.687L721 374v-2z"/><path fill="#55222d" d="M740 329c2 4 2 4 3 10h2l1-7h1v7l-4 2-5 4c-5.673 1.62-10.023 2-16 2l1 2h-6l-1 1h-6v2l4 2 1 2-5-1v-2l-4-2-1-5c4-4 4-4 9.027-4.215q5.906.277 11.813.563C731 342 731 342 736 337l4-2z"/><path fill="#934f60" d="M908 440h1l1 7 1 4-1 4h2l1 4 2 1 1-3c3 4 3 4 3.938 11.125.92 6.822 2.39 11.64 5.062 17.875v5h-2c-3-6-3-6-3-11h-2c-10-15.625-10-15.625-10-20l-4-2v-3l3 1-1.187-3.5c-.945-5.23-.018-7.751 2.187-12.5"/></g>
</defs>
<rect x="372" y="49" width="820" height="820" fill="url(#bg)"/>
<use xlink:href="#art" filter="url(#glow)"/>
<use xlink:href="#art"/>
</svg>